<?xml version="1.0" standalone="no"?>
<!DOCTYPE svg PUBLIC "-//W3C//DTD SVG 1.1//EN" "http://www.w3.org/Graphics/SVG/1.1/DTD/svg11.dtd" >
<svg xmlns="http://www.w3.org/2000/svg" xmlns:xlink="http://www.w3.org/1999/xlink" version="1.1">
<metadata>
Created by FontForge 20150824 at Mon Apr 18 16:58:57 2016
 By Everything Fonts
Copyright (c) 2014 by Seniors Studio. All rights reserved.
</metadata>
<defs>
<font id="ShintiaScript" horiz-adv-x="706" >
  <font-face 
    font-family="Shintia Script"
    font-weight="400"
    font-stretch="normal"
    units-per-em="1000"
    panose-1="2 0 8 4 0 0 0 2 0 3"
    ascent="800"
    descent="-200"
    x-height="400"
    cap-height="752"
    bbox="-420.96 -272.417 1582.17 1011.23"
    underline-thickness="50"
    underline-position="-100"
    unicode-range="U+0020-FB04"
  />
<missing-glyph horiz-adv-x="215" 
 />
    <glyph glyph-name="T_h" unicode="Th" horiz-adv-x="909" 
d="M426 652c39 12 90 18 119 2c-32 -53 -130 -477 -161 -650c-21 -8 -78 -15 -90 0c19 176 103 577 132 648zM944 186c9 5 14 5 22 2c-12 -95 -65 -193 -140 -194c-50 0 -90 27 -96 84c-2 21 2 54 9 88c15 91 57 194 9 194c-30 0 -76 -60 -107 -120
c-22 -94 -42 -182 -52 -236c-22 -9 -76 -15 -90 0c19 154 109 534 147 654c-93 27 -226 52 -307 18c-71 -30 -112 -134 -112 -274c-10 -20 -94 58 -87 84c21 107 86 190 174 230c136 64 326 16 481 35c1 -18 -30 -81 -33 -87c-22 -56 -59 -188 -96 -324c27 34 59 59 95 59
c128 0 82 -161 63 -235c-15 -55 -24 -105 14 -127c45 -27 105 105 106 149z" />
    <glyph glyph-name="f_f_t" unicode="fft" horiz-adv-x="708" 
d="M738 194c9 5 16 5 25 2c-15 -107 -71 -201 -157 -202c-49 0 -79 21 -94 54c-30 62 -20 181 9 320h-109c-35 -137 -64 -252 -98 -390c78 -2 134 -21 184 -45c7 -5 -16 -27 -22 -25c-62 19 -131 28 -174 27c-5 -23 -13 -46 -21 -69c-22 -61 -49 -108 -121 -115
c-161 -17 -164 205 53 228c29 136 58 253 87 389h-133c-34 -137 -64 -252 -98 -390c-9 -37 -19 -75 -32 -112c-22 -61 -50 -108 -121 -115c-162 -17 -164 205 53 228c28 136 53 253 82 389h-48c-8 10 4 40 12 41h46c20 72 51 222 91 281c12 18 31 37 60 49c11 5 21 8 32 10
c15 4 32 6 49 6c31 0 63 -6 92 -23c12 -6 20 -14 28 -22c11 11 25 22 44 29c9 5 21 8 32 10c15 4 32 7 49 6c84 -2 152 -53 184 -128c-19 -30 -52 -128 -77 -218h63c13 -10 -2 -38 -7 -41h-68c-32 -124 -50 -227 -39 -281c4 -22 13 -39 28 -47c53 -29 114 104 116 154z
M-145 -196c46 -38 91 77 100 125c-106 -24 -125 -103 -100 -125zM99 -196c46 -38 91 77 100 125c-107 -24 -125 -103 -100 -125zM310 409c10 34 61 234 61 257c0 26 -19 40 -42 45c-10 3 -20 3 -30 1c-24 -6 -41 -27 -49 -53c-27 -78 -51 -170 -72 -250h132zM422 409
c37 0 72 1 108 0c19 77 45 170 67 246c9 44 -11 65 -54 57c-24 -6 -40 -27 -49 -53c-27 -78 -51 -170 -72 -250z" />
    <glyph glyph-name="f_t" unicode="ft" horiz-adv-x="471" 
d="M495 186c10 6 16 5 25 3c-15 -107 -71 -201 -156 -202c-49 0 -78 21 -94 55c-30 62 -18 188 11 325h-109c-34 -135 -64 -251 -99 -389c77 -3 134 -22 184 -46c8 -5 -16 -27 -22 -25c-63 19 -130 28 -173 28c-6 -24 -13 -47 -21 -70c-22 -59 -50 -107 -121 -114
c-161 -17 -162 205 53 227c29 136 58 255 88 389h-58c-6 10 0 36 10 42h58c20 71 41 176 66 243c22 65 70 102 159 100c85 -2 152 -53 184 -127c-19 -30 -51 -126 -76 -216h63c13 -11 -2 -38 -7 -42h-68c-31 -123 -51 -234 -40 -287c5 -22 13 -39 28 -47
c52 -29 113 104 115 153zM-140 -196c44 -38 90 76 100 124c-107 -24 -125 -102 -100 -124zM182 409c36 0 72 1 107 0c20 76 45 168 67 242c9 45 -11 66 -54 58c-23 -6 -41 -28 -49 -53c-27 -75 -50 -169 -71 -247z" />
    <glyph glyph-name="f_f" unicode="ff" horiz-adv-x="495" 
d="M624 729c49 -28 61 -78 19 -144c-8 -17 -92 -32 -107 -15c27 23 42 52 53 87c11 39 -10 59 -50 52c-25 -6 -41 -29 -51 -54c-26 -78 -48 -164 -69 -243h62c15 -11 -3 -38 -8 -42h-65c-34 -136 -65 -255 -98 -393c77 -2 134 -20 183 -44c8 -5 -16 -28 -21 -26
c-63 20 -132 29 -174 28c-6 -24 -13 -47 -20 -69c-22 -60 -50 -108 -121 -116c-162 -16 -164 206 52 228c28 135 60 257 89 392h-131c-35 -136 -65 -256 -98 -393c-10 -37 -20 -75 -34 -111c-21 -60 -50 -108 -120 -116c-161 -16 -163 206 53 228c28 135 58 257 87 392h-53
c-7 10 5 40 11 42h52c20 71 44 215 86 274c12 19 30 37 59 49c10 5 22 8 31 10c16 4 34 6 50 6c31 0 63 -7 92 -22c10 -7 19 -14 26 -21c11 9 25 20 43 27c10 5 20 8 31 10c45 11 96 9 141 -16zM-145 -196c44 -39 91 76 99 125c-106 -24 -124 -104 -99 -125zM96 -196
c44 -39 90 76 100 125c-107 -24 -125 -104 -100 -125zM368 662c4 22 -18 41 -42 46c-9 2 -19 2 -29 1c-24 -6 -41 -29 -50 -54c-26 -78 -50 -164 -70 -243h131c13 39 56 225 60 250z" />
    <glyph glyph-name="f_f_l" unicode="ffl" 
d="M732 193c12 6 17 6 26 3c-14 -108 -71 -201 -157 -202c-49 0 -78 22 -94 55c-57 120 46 462 87 603c9 45 -10 66 -53 57c-25 -6 -40 -27 -49 -52c-26 -79 -47 -166 -69 -245h58c7 -8 0 -34 -7 -42h-62c-34 -136 -66 -255 -100 -392c78 -2 134 -21 184 -44
c8 -7 -15 -28 -22 -26c-63 18 -129 28 -174 27c-5 -23 -12 -46 -19 -68c-24 -62 -50 -109 -123 -116c-161 -17 -163 205 54 227c28 136 59 257 88 392h-133c-34 -136 -66 -256 -99 -392c-9 -36 -19 -76 -33 -111c-21 -62 -48 -109 -120 -116c-160 -17 -163 205 54 227
c26 136 59 257 88 392h-54c-7 10 4 40 12 42h51c20 72 45 216 85 276c11 17 30 36 59 48c10 5 22 8 33 11c14 4 32 5 48 5c30 0 63 -5 92 -23c12 -5 20 -14 28 -23c11 13 26 23 44 30c10 5 22 8 32 11c16 4 32 6 48 5c85 -1 152 -54 184 -127c-57 -90 -147 -451 -129 -539
c4 -21 12 -38 28 -46c52 -29 114 104 114 153zM-145 -196c44 -38 90 77 101 125c-108 -24 -126 -103 -101 -125zM98 -196c45 -38 92 77 100 125c-108 -24 -126 -103 -100 -125zM311 412c9 33 59 229 59 252c0 25 -20 39 -43 45c-9 1 -20 1 -29 0c-24 -6 -42 -27 -50 -52
c-26 -79 -49 -166 -70 -245h133z" />
    <glyph glyph-name="f_i" unicode="fi" horiz-adv-x="480" 
d="M510 203c9 5 16 5 25 3c-16 -106 -77 -212 -161 -212c-51 0 -79 20 -93 52c-29 57 -17 198 23 355c27 12 97 18 119 0c-46 -140 -71 -266 -62 -316c6 -21 13 -39 27 -47c53 -27 121 116 122 165zM66 -21c78 -2 134 -22 183 -46c8 -5 -15 -29 -23 -24
c-62 19 -128 27 -172 25c-5 -22 -11 -46 -18 -67c-23 -61 -51 -107 -123 -116c-159 -16 -162 206 52 228c31 133 61 255 89 390h-51c-9 12 3 41 11 43h52c19 71 41 216 83 275c43 66 161 79 230 50c127 -56 104 -230 10 -230c-32 0 -59 25 -59 55c0 27 22 51 49 58
c20 11 18 49 -7 72c-45 37 -108 20 -127 -36c-26 -80 -46 -165 -69 -244h63c12 -12 -2 -39 -8 -43h-64c-35 -135 -68 -255 -101 -390zM-148 -197c45 -38 92 76 100 126c-105 -25 -124 -104 -100 -126z" />
    <glyph glyph-name="f_l" unicode="fl" horiz-adv-x="459" 
d="M488 194c10 6 16 5 25 3c-14 -108 -69 -203 -155 -203c-50 0 -80 22 -95 55c-57 120 48 464 89 603c10 45 -11 65 -54 57c-24 -5 -40 -27 -49 -52c-26 -76 -49 -166 -69 -245h61c9 -6 0 -38 -14 -40h-59c-35 -137 -65 -257 -98 -394c77 -3 133 -21 183 -44
c8 -5 -16 -27 -22 -25c-63 19 -130 28 -172 27c-6 -23 -14 -46 -22 -68c-21 -61 -49 -109 -121 -116c-161 -17 -163 204 53 227c29 134 60 257 89 393h-58c-6 9 -1 35 11 40h57c20 70 40 173 63 241c24 64 72 101 160 99c86 -2 152 -53 185 -127
c-57 -90 -147 -452 -131 -538c5 -22 15 -39 29 -47c52 -28 112 103 114 154zM-144 -195c45 -39 91 77 101 125c-108 -24 -128 -103 -101 -125z" />
    <glyph glyph-name="f_j" unicode="fj" horiz-adv-x="433" 
d="M500 -68c7 -5 -16 -28 -22 -25c-64 20 -130 29 -173 27c-7 -23 -12 -44 -20 -68c-21 -61 -54 -108 -127 -115c-161 -17 -166 203 49 226c41 155 67 267 107 422c41 11 94 16 129 0c-41 -86 -102 -315 -128 -422c78 -2 136 -21 185 -45zM98 -195c43 -37 91 88 99 123
c-105 -24 -125 -103 -99 -123zM170 368c-34 -136 -66 -254 -99 -391c-9 -37 -18 -75 -34 -112c-21 -60 -49 -107 -119 -114c-162 -17 -164 204 52 227c29 136 59 255 89 390h-54c-7 8 5 40 12 41h53c20 72 43 219 84 278c43 66 160 79 229 50c129 -55 106 -229 11 -229
c-31 0 -58 25 -58 56c0 27 20 51 47 55c22 13 18 50 -7 74c-43 37 -106 21 -124 -37c-29 -78 -50 -167 -71 -247h64c13 -10 -2 -39 -8 -41h-67zM-142 -198c44 -38 89 78 99 126c-106 -24 -126 -104 -99 -126z" />
    <glyph glyph-name=".notdef" horiz-adv-x="215" 
 />
    <glyph glyph-name="Acircumflex" unicode="&#xc2;" horiz-adv-x="698" 
d="M729 181c9 6 15 5 23 2c-13 -101 -69 -190 -150 -191c-46 -1 -74 24 -89 55c-11 24 -13 66 -10 120c-33 6 -101 5 -121 3c-35 -63 -81 -153 -155 -173c-21 -6 -46 -6 -70 0c-47 13 -57 60 -34 103c28 49 98 99 212 111c68 143 170 369 239 512c20 11 58 17 94 18
c33 0 65 -4 81 -16c-25 -58 -213 -634 -132 -686c48 -31 110 95 112 142zM199 95c-46 -73 37 -110 114 68c-60 -13 -97 -40 -114 -68zM507 204c8 77 72 324 92 410c-50 -101 -178 -357 -200 -405c24 -1 83 -1 108 -5zM727 986c27 -53 56 -106 82 -159c-6 -8 -22 -7 -33 0
l-66 111l-115 -110c-21 -7 -49 -8 -61 0c49 53 98 106 146 159c9 12 26 9 47 -1z" />
    <glyph glyph-name="Adieresis" unicode="&#xc4;" horiz-adv-x="713" 
d="M740 183c10 6 16 5 24 3c-13 -104 -70 -194 -153 -195c-47 -1 -74 24 -90 57c-12 23 -14 67 -10 121c-35 7 -104 6 -124 3c-36 -64 -82 -155 -157 -176c-22 -7 -46 -7 -72 0c-47 14 -58 61 -33 105c27 50 98 101 215 113c69 145 173 376 243 521c36 21 141 28 178 2
c-24 -59 -217 -645 -134 -698c48 -31 112 97 113 144zM201 96c-47 -75 37 -112 116 69c-60 -13 -98 -41 -116 -69zM514 207c9 79 74 330 94 418c-50 -103 -181 -365 -202 -412c23 -1 83 -1 108 -6zM626 840c-32 0 -57 22 -57 51c0 30 25 53 57 53c31 0 55 -23 55 -53
c0 -29 -24 -51 -55 -51zM764 840c-32 0 -57 22 -57 51c0 30 25 53 57 53c31 0 55 -23 55 -53c0 -29 -24 -51 -55 -51z" />
    <glyph glyph-name="Aring" unicode="&#xc5;" horiz-adv-x="692" 
d="M303 167c-61 -13 -99 -42 -116 -69c-47 -75 37 -111 116 69zM723 185c9 6 15 6 23 3c-13 -103 -70 -193 -152 -194c-46 -1 -74 23 -89 56c-12 24 -14 66 -10 121c-35 6 -104 5 -124 2c-35 -63 -81 -154 -155 -175c-22 -6 -46 -6 -71 1c-48 13 -59 61 -35 105
c27 49 99 100 214 112c69 143 172 374 243 518c20 11 57 17 94 18c34 0 66 -5 82 -16c-24 -60 -216 -641 -133 -694c47 -32 111 95 113 143zM592 624c-50 -103 -180 -362 -203 -410c24 -1 85 -1 110 -5c8 78 72 327 93 415zM732 935c9 -13 16 -29 16 -48
c0 -16 -7 -30 -16 -43c-12 -11 -28 -16 -44 -16c-18 0 -33 5 -46 16c-11 13 -16 27 -16 43c0 19 5 35 16 48c13 12 28 18 46 18c16 0 30 -6 44 -18zM711 865c5 6 9 14 9 22c0 13 -5 22 -9 27c-7 8 -14 10 -23 10c-11 0 -19 -2 -24 -10c-7 -5 -10 -14 -10 -27
c0 -8 3 -16 10 -22c4 -6 13 -9 24 -9c9 0 16 3 23 9z" />
    <glyph glyph-name="B" unicode="B" horiz-adv-x="697" 
d="M742 282c10 -3 3 -25 -8 -28c-25 -5 -61 -13 -86 -21c-37 -291 -377 -296 -326 -125c24 81 153 115 212 133c33 132 -84 163 -180 104c-31 -123 -62 -260 -76 -342c-23 -8 -78 -15 -92 0c19 180 112 581 142 655c39 12 89 17 121 1c-15 -25 -46 -126 -77 -246
c151 65 249 293 50 296c-167 3 -204 -154 -204 -296c-11 -19 -91 56 -86 83c29 148 150 257 299 255c246 -1 231 -245 73 -323c91 -3 148 -67 146 -167c27 5 67 16 92 21zM397 105c-31 -91 80 -103 126 94c-73 -27 -117 -67 -126 -94z" />
    <glyph glyph-name="C" unicode="C" horiz-adv-x="521" 
d="M549 188c15 5 28 5 37 0c-47 -129 -133 -194 -237 -194c-356 0 -221 735 49 757c32 3 61 0 86 -8c115 -36 98 -144 51 -221c-8 -23 -94 -50 -123 -23c96 86 105 200 60 209c-157 31 -351 -676 -101 -671c77 1 139 55 178 151z" />
    <glyph glyph-name="Ccedilla" unicode="&#xc7;" horiz-adv-x="522" 
d="M351 -6c-12 0 -25 1 -37 4c-3 -11 -7 -22 -12 -33c157 40 128 -143 -1 -143c-69 0 -86 73 -32 95c19 5 45 -11 38 -15c-55 -4 -50 -68 -3 -68c40 0 69 51 56 83c-11 32 -53 35 -92 25c3 7 13 36 21 62c-275 83 -140 726 112 747c32 3 61 0 87 -8c114 -35 97 -143 50 -221
c-9 -23 -93 -50 -123 -22c97 86 105 200 60 210c-158 29 -352 -676 -101 -672c76 2 139 55 179 150c14 6 27 5 35 0c-46 -128 -132 -194 -237 -194z" />
    <glyph glyph-name="D" unicode="D" horiz-adv-x="657" 
d="M501 740c275 -83 156 -543 -44 -688c-79 -57 -219 -65 -268 -53c18 152 82 522 134 659c36 11 87 18 117 2c-52 -81 -132 -500 -156 -623c221 6 345 511 220 635c-163 133 -335 -89 -295 -257c-9 -21 -92 56 -86 84c35 187 204 289 378 241z" />
    <glyph glyph-name="E" unicode="E" horiz-adv-x="516" 
d="M550 187c11 4 28 4 38 0c-40 -102 -109 -180 -223 -192c-294 -25 -294 305 -67 406c-71 55 -86 114 -71 182c-25 10 -58 21 -77 32c-5 0 12 32 22 27c20 -7 44 -16 69 -22c46 104 133 132 203 132c221 0 120 -253 -120 -194c-10 -46 11 -124 118 -153c5 -2 3 -3 -1 -4
c-195 -39 -241 -372 -77 -364c91 5 148 70 186 150zM457 709c-43 0 -92 -53 -116 -110c156 -17 194 110 116 110z" />
    <glyph glyph-name="Eacute" unicode="&#xc9;" horiz-adv-x="518" 
d="M468 840c-19 -7 -48 -8 -68 0c16 54 33 108 50 162c35 10 66 14 92 1c-25 -55 -49 -108 -74 -163zM550 187c11 4 28 4 38 0c-40 -102 -109 -180 -223 -192c-294 -25 -294 305 -67 406c-71 55 -86 114 -71 182c-25 10 -58 21 -77 32c-5 0 12 32 22 27c20 -7 44 -16 69 -22
c46 104 133 132 203 132c221 0 120 -253 -120 -194c-10 -46 11 -124 118 -153c5 -2 3 -3 -1 -4c-195 -39 -241 -372 -77 -364c91 5 148 70 186 150zM457 709c-43 0 -92 -53 -116 -110c156 -17 194 110 116 110z" />
    <glyph glyph-name="Edieresis" unicode="&#xcb;" horiz-adv-x="521" 
d="M381 840c-32 0 -57 22 -57 51c0 30 25 53 57 53c31 0 55 -23 55 -53c0 -29 -24 -51 -55 -51zM519 840c-32 0 -57 22 -57 51c0 30 25 53 57 53c31 0 55 -23 55 -53c0 -29 -24 -51 -55 -51zM550 187c11 4 28 4 38 0c-40 -102 -109 -180 -223 -192
c-294 -25 -294 305 -67 406c-71 55 -86 114 -71 182c-25 10 -58 21 -77 32c-5 0 12 32 22 27c20 -7 44 -16 69 -22c46 104 133 132 203 132c221 0 120 -253 -120 -194c-10 -46 11 -124 118 -153c5 -2 3 -3 -1 -4c-195 -39 -241 -372 -77 -364c91 5 148 70 186 150zM457 709
c-43 0 -92 -53 -116 -110c156 -17 194 110 116 110z" />
    <glyph glyph-name="Euro" unicode="&#x20ac;" horiz-adv-x="722" 
d="M621 224c4 11 37 8 34 0c-42 -152 -133 -230 -247 -230c-155 0 -216 137 -215 294h-72c5 15 7 30 7 43c20 1 42 3 66 3c2 18 4 37 7 54c-29 0 -57 1 -80 1c5 14 7 28 7 42c25 1 52 2 82 4c36 161 130 306 247 316c31 1 61 0 86 -8c115 -36 98 -144 51 -222
c-9 -22 -93 -49 -122 -22c95 85 105 200 58 209c-69 13 -146 -119 -189 -269c57 2 115 5 158 6c0 -18 -5 -37 -14 -57h-156c-4 -16 -7 -33 -11 -49c67 3 132 5 181 7c0 -19 -5 -38 -14 -58h-172c-15 -136 13 -253 116 -250c86 1 153 68 192 186z" />
    <glyph glyph-name="F" unicode="F" horiz-adv-x="576" 
d="M745 748c1 0 0 -4 0 -5c-13 -44 -31 -76 -43 -103c-4 -12 -14 -15 -27 -12c-114 22 -242 91 -351 51c-75 -28 -111 -136 -111 -277c-10 -19 -92 57 -85 84c20 107 85 190 172 231c132 67 291 13 445 31zM518 404c14 -8 -10 -85 -18 -84c-22 -5 -86 -8 -151 -6
c-26 -116 -53 -237 -66 -311c-21 -7 -78 -14 -90 0c8 76 29 198 53 313c-26 1 -46 3 -57 4l-2 1v43c13 -1 38 -1 68 1c28 132 57 251 72 288c39 13 88 18 119 3c-17 -28 -51 -147 -84 -283c66 7 128 17 156 31z" />
    <glyph glyph-name="G" unicode="G" horiz-adv-x="558" 
d="M448 505c92 84 103 205 53 205c-174 0 -429 -591 -204 -591c45 0 76 28 99 62c19 83 27 133 49 219c38 8 85 16 115 0c-67 -166 -82 -329 -138 -497c-20 -57 -50 -102 -113 -109c-114 -12 -140 120 -47 186c21 -1 26 -25 26 -40c-44 -33 -51 -81 -33 -95
c27 -23 61 35 67 55c27 59 41 144 57 210c-27 -19 -59 -33 -100 -33c-344 0 -131 675 163 675c106 0 172 -49 150 -156c-4 -19 -13 -43 -24 -69c-8 -23 -90 -50 -120 -22z" />
    <glyph glyph-name="H" unicode="H" horiz-adv-x="729" 
d="M757 186c10 5 15 5 23 2c-13 -101 -66 -192 -144 -194c-45 0 -71 24 -87 56c-18 40 -9 143 12 259c-27 -5 -108 -6 -191 -6c-28 -116 -53 -233 -65 -299c-22 -9 -77 -15 -91 0c9 69 31 185 55 301c-30 1 -59 4 -88 7v43c16 -2 53 -2 99 1c31 136 63 266 83 330
c-132 -21 -148 -184 -148 -294c-10 -20 -92 59 -86 85c40 206 187 275 377 275c-57 -130 -87 -250 -122 -390c80 7 158 15 192 28c30 148 72 298 92 349c38 13 88 19 118 2c-44 -70 -179 -560 -160 -657c3 -19 9 -35 23 -43c47 -27 107 98 108 145z" />
    <glyph glyph-name="I" unicode="I" horiz-adv-x="391" 
d="M284 3v0c-22 -9 -77 -15 -91 0c19 161 109 557 147 684c-130 -21 -147 -185 -147 -294c-10 -21 -92 57 -86 85c38 206 187 274 377 274c-89 -218 -157 -520 -200 -749z" />
    <glyph glyph-name="Iacute" unicode="&#xcd;" horiz-adv-x="419" 
d="M140 479c38 206 188 274 378 274c-91 -219 -158 -520 -201 -750c-22 -9 -77 -15 -91 0c19 162 109 558 149 685c-133 -23 -148 -186 -148 -295c-9 -20 -93 58 -87 86zM430 841c-17 -8 -47 -9 -67 0c17 53 33 107 50 161c34 10 66 13 92 1z" />
    <glyph glyph-name="Icircumflex" unicode="&#xce;" horiz-adv-x="419" 
d="M141 478c38 206 188 274 378 274c-91 -218 -158 -520 -201 -749c-21 -9 -76 -15 -90 0c18 162 108 557 146 683c-130 -22 -146 -184 -146 -293c-10 -20 -93 58 -87 85zM473 1000c28 -54 56 -108 83 -161c-6 -8 -22 -8 -33 0l-67 112l-118 -111c-20 -8 -48 -9 -60 0
c50 53 98 107 147 161c9 12 27 9 48 -1z" />
    <glyph glyph-name="Idieresis" unicode="&#xcf;" horiz-adv-x="414" 
d="M132 479c38 206 188 274 378 274c-91 -219 -158 -520 -201 -750c-22 -9 -77 -15 -91 0c19 162 109 558 149 685c-133 -23 -148 -186 -148 -295c-9 -20 -93 58 -87 86zM343 840c-32 0 -57 22 -57 51c0 30 25 53 57 53c31 0 55 -23 55 -53c0 -29 -24 -51 -55 -51zM481 840
c-32 0 -57 22 -57 51c0 30 25 53 57 53c31 0 55 -23 55 -53c0 -29 -24 -51 -55 -51z" />
    <glyph glyph-name="J" unicode="J" horiz-adv-x="410" 
d="M103 -156c27 -23 50 15 69 61c19 48 32 102 36 119c33 135 119 494 162 665c-137 -16 -154 -173 -154 -284c-9 -19 -91 56 -85 82c38 202 186 265 372 265c-77 -178 -152 -541 -201 -741c-8 -37 -18 -75 -29 -110c-20 -56 -52 -100 -117 -107c-113 -12 -137 120 -45 186
c21 0 29 -23 27 -41c-46 -33 -52 -81 -35 -95z" />
    <glyph glyph-name="K" unicode="K" horiz-adv-x="585" 
d="M627 185c9 5 15 5 23 2c-13 -100 -65 -192 -142 -193c-130 -1 -115 239 -115 334c-21 -22 -42 -37 -57 -43c-27 -109 -51 -218 -62 -282c-21 -9 -77 -15 -89 0c17 161 108 557 148 684c-132 -21 -147 -181 -147 -294c-11 -21 -94 59 -88 85c39 207 193 278 377 274
c-50 -130 -83 -242 -118 -380c86 87 187 287 236 365c11 12 93 26 104 0c-41 -74 -155 -243 -250 -351c18 -8 34 -17 39 -30c-2 -49 -16 -318 49 -319c44 0 91 107 92 148z" />
    <glyph glyph-name="L" unicode="L" horiz-adv-x="391" 
d="M255 -6c113 -6 207 -41 326 -121c-6 -29 -57 -62 -107 -61c-125 107 -186 129 -315 146c51 236 122 499 180 733c-142 -18 -160 -169 -160 -286c-10 -22 -95 57 -89 85c42 206 187 267 376 263c-71 -197 -151 -547 -211 -759z" />
    <glyph glyph-name="M" unicode="M" horiz-adv-x="1011" 
d="M1056 184c9 5 16 4 23 2c-14 -98 -67 -192 -145 -192c-194 -3 -33 491 -8 589c-62 -131 -231 -454 -287 -575c-8 -14 -85 -24 -93 -4c32 149 92 481 120 612c-79 -170 -206 -622 -420 -622c-171 -2 -122 294 -69 375c12 24 122 31 121 6c-67 -59 -156 -340 -52 -340
c166 0 327 585 382 699c43 25 150 22 184 2c-16 -39 -100 -293 -136 -484c71 158 191 401 233 490c42 15 152 13 179 -6c-36 -58 -249 -702 -128 -700c45 0 95 108 96 148z" />
    <glyph glyph-name="N" unicode="N" horiz-adv-x="686" 
d="M719 185c11 5 16 5 24 2c-13 -97 -66 -192 -145 -193c-194 -1 -34 484 -9 583c-62 -129 -231 -447 -289 -567c-7 -15 -83 -25 -92 -4c48 218 83 440 129 682c-126 -23 -143 -180 -143 -287c-9 -21 -93 58 -86 84c37 195 187 271 369 267c-55 -135 -103 -359 -139 -503
c72 156 191 396 235 485c39 29 169 20 177 -7c-41 -65 -227 -651 -139 -688c49 -19 107 103 108 146z" />
    <glyph glyph-name="O" unicode="O" 
d="M726 557c5 2 13 -17 11 -20c-19 -21 -41 -38 -63 -48c16 -50 23 -112 12 -186c-79 -485 -631 -361 -562 110c25 167 118 334 287 339c56 1 129 -22 178 -61c4 -15 -6 -42 -16 -46c-21 27 -88 66 -139 65c-122 -4 -188 -189 -202 -300c-59 -430 248 -520 353 -77
c9 55 14 97 15 131c-35 -8 -74 -4 -105 19c-112 86 62 257 168 28c19 8 45 25 63 46zM524 524c18 -15 47 -26 75 -25c-3 26 -11 48 -25 67c-20 23 -47 28 -62 21c-19 -9 -16 -37 12 -63z" />
    <glyph glyph-name="Oacute" unicode="&#xd3;" horiz-adv-x="731" 
d="M745 555c5 3 15 -16 12 -17c-19 -21 -42 -39 -64 -51c17 -50 23 -111 12 -185c-79 -486 -632 -362 -562 110c24 167 118 335 287 340c56 1 131 -22 180 -61c2 -15 -7 -42 -17 -47c-22 27 -88 67 -139 65c-122 -4 -189 -189 -204 -299c-59 -431 249 -523 354 -79
c9 56 15 97 16 131c-37 -7 -73 -4 -105 20c-112 87 61 258 169 29c18 7 44 25 61 44zM544 524c17 -16 46 -26 74 -26c-2 27 -10 47 -24 67c-21 23 -47 29 -62 22c-19 -11 -16 -39 12 -63zM467 841c-17 -8 -46 -9 -68 0c18 53 34 107 51 160c34 10 66 14 92 1
c-25 -53 -50 -108 -75 -161z" />
    <glyph glyph-name="Ocircumflex" unicode="&#xd4;" horiz-adv-x="718" 
d="M731 555c5 3 15 -16 12 -17c-19 -21 -42 -39 -64 -51c17 -50 23 -111 12 -185c-79 -486 -632 -362 -562 110c24 167 118 335 287 340c56 1 131 -22 180 -61c2 -15 -7 -42 -17 -47c-22 27 -88 67 -139 65c-122 -4 -189 -189 -204 -299c-59 -431 249 -523 354 -79
c9 56 15 97 16 131c-37 -7 -73 -4 -105 20c-112 87 61 258 169 29c18 7 44 25 61 44zM530 524c17 -16 46 -26 74 -26c-2 27 -10 47 -24 67c-21 23 -47 29 -62 22c-19 -11 -16 -39 12 -63zM506 1000c28 -54 56 -108 83 -161c-6 -8 -22 -8 -33 0l-67 112l-118 -111
c-20 -8 -48 -9 -60 0c50 53 98 107 147 161c9 12 27 9 48 -1z" />
    <glyph glyph-name="Odieresis" unicode="&#xd6;" horiz-adv-x="734" 
d="M749 555c5 3 15 -16 12 -17c-19 -21 -42 -39 -64 -51c17 -50 23 -111 12 -185c-79 -486 -632 -362 -562 110c24 167 118 335 287 340c56 1 131 -22 180 -61c2 -15 -7 -42 -17 -47c-22 27 -88 67 -139 65c-122 -4 -189 -189 -204 -299c-59 -431 249 -523 354 -79
c9 56 15 97 16 131c-37 -7 -73 -4 -105 20c-112 87 61 258 169 29c18 7 44 25 61 44zM548 524c17 -16 46 -26 74 -26c-2 27 -10 47 -24 67c-21 23 -47 29 -62 22c-19 -11 -16 -39 12 -63zM425 840c-32 0 -57 22 -57 51c0 30 25 53 57 53c31 0 55 -23 55 -53
c0 -29 -24 -51 -55 -51zM563 840c-32 0 -57 22 -57 51c0 30 25 53 57 53c31 0 55 -23 55 -53c0 -29 -24 -51 -55 -51z" />
    <glyph glyph-name="Oslash" unicode="&#xd8;" horiz-adv-x="692" 
d="M705 519c5 2 13 -14 11 -16c-18 -20 -38 -36 -60 -47c16 -46 22 -104 11 -173c-39 -248 -212 -325 -349 -273c-8 -38 -15 -72 -20 -103c-10 -7 -15 -8 -33 -8l27 123c-102 54 -175 180 -148 363c23 157 110 313 269 317c8 0 17 0 26 -1l9 45c26 5 36 6 69 6
c-8 -19 -15 -41 -23 -63c31 -10 61 -25 84 -44c4 -13 -6 -38 -15 -42c-13 17 -46 38 -80 50c-58 -171 -117 -414 -156 -601c79 -47 192 29 247 259c9 51 14 91 14 121c-32 -6 -68 -3 -97 19c-104 82 57 240 157 27c16 7 41 23 57 41zM517 490c16 -14 44 -24 70 -24
c-3 24 -10 45 -22 62c-19 21 -45 27 -59 20c-18 -9 -14 -35 11 -58zM245 382c-21 -153 8 -260 57 -310l129 590c-113 -5 -173 -176 -186 -280z" />
    <glyph glyph-name="P" unicode="P" horiz-adv-x="597" 
d="M424 752c143 7 264 -77 229 -240c-30 -129 -151 -261 -327 -260c-31 -125 -39 -167 -55 -249c-22 -9 -81 -15 -95 0c21 181 114 579 146 653c40 11 91 18 125 1c-17 -25 -76 -237 -109 -359c92 0 164 108 191 214c28 108 0 199 -119 198c-163 -4 -203 -166 -203 -300
c-10 -21 -95 57 -89 83c31 151 154 251 306 259z" />
    <glyph glyph-name="Q" unicode="Q" horiz-adv-x="678" 
d="M541 65c74 -57 145 -106 209 -111c3 -48 -45 -98 -85 -97c-85 60 -128 116 -176 169c-179 -107 -430 59 -383 387c24 168 116 334 281 339c55 2 126 -22 175 -61c3 -15 -7 -42 -16 -45c-20 23 -74 68 -138 64c-119 -7 -181 -190 -196 -299c-42 -308 101 -450 223 -323
c-43 41 -85 40 -128 -7l-22 28c56 67 121 60 183 15c35 46 67 116 87 210c11 55 16 96 16 129c-34 -7 -70 -4 -101 21c-110 86 59 256 165 28c16 7 43 25 60 45c4 2 13 -16 11 -20c-19 -19 -40 -37 -62 -49c17 -50 23 -111 12 -185c-18 -110 -59 -189 -115 -238zM498 524
c16 -15 45 -26 73 -25c-3 26 -11 48 -24 67c-21 22 -46 29 -61 20c-18 -9 -15 -36 12 -62z" />
    <glyph glyph-name="R" unicode="R" horiz-adv-x="600" 
d="M635 186c9 5 14 4 22 2c-13 -94 -69 -193 -148 -194c-131 -1 -119 241 -117 337c-21 -10 -41 -16 -56 -20c-31 -125 -55 -226 -69 -308c-23 -9 -80 -15 -93 0c21 182 110 581 142 656c38 9 89 17 121 1c-16 -24 -53 -168 -86 -288c75 20 147 138 157 215
c9 73 -52 125 -121 123c-85 -1 -181 -80 -181 -299c-10 -21 -94 58 -88 83c32 165 156 243 272 256c122 13 236 -48 223 -161c-11 -104 -84 -177 -157 -223c17 -3 30 -8 34 -18c-2 -50 -14 -283 32 -307c47 -24 112 101 113 145z" />
    <glyph glyph-name="S" unicode="S" horiz-adv-x="567" 
d="M425 581c100 -55 147 116 23 128c-66 8 -116 -36 -123 -94c-19 -147 261 -228 211 -453c-50 -230 -487 -242 -418 46c12 50 48 96 104 120c18 5 89 -26 102 -56c-64 -4 -111 -49 -127 -95c-61 -190 195 -184 226 -19c38 184 -228 256 -217 425c7 103 113 184 243 167
c197 -27 163 -300 -26 -247c-18 6 -22 86 2 78z" />
    <glyph glyph-name="Scaron" unicode="&#x160;" horiz-adv-x="579" 
d="M455 750c196 -26 163 -300 -26 -246c-18 6 -23 87 2 78c100 -55 146 113 23 129c-67 6 -116 -38 -124 -94c-19 -147 261 -229 211 -452c-49 -228 -484 -240 -415 45c12 51 47 97 102 119c19 6 89 -24 101 -55c-63 -5 -110 -48 -125 -95c-60 -188 195 -181 225 -20
c37 186 -228 257 -217 426c7 100 113 181 243 165zM468 834c-8 -13 -26 -10 -47 1c-27 52 -54 107 -83 160c7 8 23 6 35 0l66 -112l117 111c20 6 49 8 61 0c-50 -53 -99 -108 -149 -160z" />
    <glyph glyph-name="T" unicode="T" horiz-adv-x="593" 
d="M408 653c37 11 88 18 119 2c-35 -53 -132 -478 -162 -651c-22 -10 -78 -16 -90 0c18 176 103 577 133 649zM777 752c2 0 1 -2 1 -4c-14 -45 -31 -77 -43 -103c-6 -12 -16 -17 -30 -12c-75 28 -276 89 -386 44c-72 -30 -111 -136 -111 -275c-10 -20 -95 58 -89 83
c21 109 88 192 175 232c136 64 327 16 483 35z" />
    <glyph glyph-name="U" unicode="U" horiz-adv-x="590" 
d="M533 740c37 11 87 18 118 3c-34 -56 -124 -561 -155 -739c-21 -9 -77 -15 -91 0c3 25 5 48 9 81c-43 -45 -101 -93 -166 -91c-47 2 -88 33 -105 107c-33 147 28 488 66 639c30 12 105 18 129 -1c-49 -122 -119 -497 -109 -633c3 -36 15 -56 30 -64c53 -28 137 63 165 107
c31 222 85 533 109 591z" />
    <glyph glyph-name="Uacute" unicode="&#xda;" horiz-adv-x="625" 
d="M572 740c37 11 87 18 118 3c-34 -56 -124 -561 -155 -739c-21 -9 -77 -15 -91 0c3 25 5 48 9 81c-43 -45 -101 -93 -166 -91c-47 2 -88 33 -105 107c-33 147 28 488 66 639c30 12 105 18 129 -1c-49 -122 -119 -497 -109 -633c3 -36 15 -56 30 -64c53 -28 137 63 165 107
c31 222 85 533 109 591zM513 841c-17 -8 -47 -9 -67 0c17 53 33 107 50 161c34 10 66 13 92 1z" />
    <glyph glyph-name="Udieresis" unicode="&#xdc;" horiz-adv-x="599" 
d="M553 740c37 11 87 18 118 3c-34 -56 -124 -561 -155 -739c-21 -9 -77 -15 -91 0c3 25 5 48 9 81c-43 -45 -101 -93 -166 -91c-47 2 -88 33 -105 107c-33 147 28 488 66 639c30 12 105 18 129 -1c-49 -122 -119 -497 -109 -633c3 -36 15 -56 30 -64c53 -28 137 63 165 107
c31 222 85 533 109 591zM399 840c-32 0 -57 22 -57 51c0 30 25 53 57 53c31 0 55 -23 55 -53c0 -29 -24 -51 -55 -51zM537 840c-32 0 -57 22 -57 51c0 30 25 53 57 53c31 0 55 -23 55 -53c0 -29 -24 -51 -55 -51z" />
    <glyph glyph-name="Uhungarumlaut" unicode="&#x170;" horiz-adv-x="615" 
d="M569 740c37 11 87 18 118 3c-34 -56 -124 -561 -155 -739c-21 -9 -77 -15 -91 0c3 25 5 48 9 81c-43 -45 -101 -93 -166 -91c-47 2 -88 33 -105 107c-33 147 28 488 66 639c30 12 105 18 129 -1c-49 -122 -119 -497 -109 -633c3 -36 15 -56 30 -64c53 -28 137 63 165 107
c31 222 85 533 109 591zM535 986c27 -53 56 -106 82 -159c-6 -8 -22 -7 -33 0l-66 111l-115 -110c-21 -7 -49 -8 -61 0c49 53 98 106 146 159c9 12 26 9 47 -1z" />
    <glyph glyph-name="V" unicode="V" horiz-adv-x="673" 
d="M723 736c6 15 83 25 91 4c-93 -255 -234 -521 -383 -730c-17 -20 -129 -21 -139 0c46 97 136 622 72 689c-20 20 -40 9 -56 -5c-46 -43 -101 -162 -98 -297c-9 -19 -96 58 -89 84c16 96 77 216 171 256c36 16 88 24 123 3c108 -59 41 -484 25 -579
c129 170 227 373 283 575z" />
    <glyph glyph-name="W" unicode="W" horiz-adv-x="944" 
d="M1013 736c7 16 84 25 93 4c-95 -257 -231 -524 -380 -733c-4 -15 -130 -19 -131 0c28 59 74 362 90 561c-78 -184 -166 -424 -264 -562c-6 -16 -126 -16 -133 0c45 97 134 625 69 693c-19 20 -39 9 -55 -5c-46 -44 -101 -163 -99 -298c-9 -20 -96 58 -89 83
c17 97 76 217 173 258c34 16 87 24 122 3c109 -59 41 -487 23 -582c93 120 162 357 216 492c6 21 120 21 121 0c3 -146 -25 -435 -36 -492c130 170 224 375 280 578z" />
    <glyph glyph-name="X" unicode="X" horiz-adv-x="750" 
d="M794 185c9 6 17 5 25 2c-12 -97 -66 -192 -154 -193c-94 0 -126 146 -145 221c-93 -116 -191 -212 -262 -221c-12 3 -13 47 0 51c67 20 157 131 241 258c-20 82 -98 408 -172 406c-67 -3 -119 -259 -118 -320c-9 -21 -95 59 -90 86c18 98 76 220 172 261c11 6 21 9 33 11
c28 7 58 7 83 -3v0c82 -35 137 -186 173 -332c72 126 123 265 134 324c36 20 103 21 106 2c-18 -82 -105 -273 -216 -431c7 -34 40 -270 87 -270c55 0 105 103 103 148z" />
    <glyph glyph-name="Y" unicode="Y" horiz-adv-x="604" 
d="M530 742c38 11 91 15 121 0c-35 -79 -139 -635 -161 -733c-7 -36 -17 -72 -30 -107c-19 -57 -55 -102 -119 -109c-115 -12 -139 121 -47 186c22 0 31 -27 27 -40c-45 -32 -51 -81 -35 -95c40 -34 77 60 91 118c15 64 29 128 40 191c-3 -5 -9 -10 -12 -14
c-113 -128 -251 -115 -265 71c-13 188 44 456 63 532c29 10 103 17 128 -1c-26 -60 -95 -345 -99 -522c-2 -143 61 -159 156 -51c14 14 30 36 43 57c39 202 74 417 99 517z" />
    <glyph glyph-name="Ydieresis" unicode="&#x178;" horiz-adv-x="592" 
d="M534 742c38 11 91 15 121 0c-35 -79 -139 -635 -161 -733c-7 -36 -17 -72 -30 -107c-19 -57 -55 -102 -119 -109c-115 -12 -139 121 -47 186c22 0 31 -27 27 -40c-45 -32 -51 -81 -35 -95c40 -34 77 60 91 118c15 64 29 128 40 191c-3 -5 -9 -10 -12 -14
c-113 -128 -251 -115 -265 71c-13 188 44 456 63 532c29 10 103 17 128 -1c-26 -60 -95 -345 -99 -522c-2 -143 61 -159 156 -51c14 14 30 36 43 57c39 202 74 417 99 517zM374 840c-32 0 -57 22 -57 51c0 30 25 53 57 53c31 0 55 -23 55 -53c0 -29 -24 -51 -55 -51z
M512 840c-32 0 -57 22 -57 51c0 30 25 53 57 53c31 0 55 -23 55 -53c0 -29 -24 -51 -55 -51z" />
    <glyph glyph-name="Z" unicode="Z" horiz-adv-x="641" 
d="M519 163c56 34 106 1 108 -48c3 -50 -39 -111 -148 -115c-5 -15 1 -55 14 -84c0 -6 -19 -8 -22 -4c-12 29 -20 63 -19 88h-377c146 228 257 412 457 703h-132c-6 -42 -22 -89 -65 -114c-57 -33 -106 -1 -109 47c-2 51 38 114 149 117c5 15 -1 55 -16 82c2 7 22 10 24 5
c11 -29 20 -62 19 -87h300c-170 -246 -339 -488 -486 -713h233c5 43 28 99 70 123zM309 632c24 12 49 41 57 71c-85 2 -117 -29 -114 -56c1 -20 23 -34 57 -15zM483 39c83 0 121 39 119 67c-3 20 -24 33 -58 15c-23 -13 -54 -51 -61 -82z" />
    <glyph glyph-name="a" unicode="a" horiz-adv-x="427" 
d="M457 190c10 5 15 5 24 2c-14 -98 -70 -197 -149 -198c-46 0 -73 19 -88 49c-3 5 -4 10 -6 17c-30 -35 -75 -61 -116 -65c-135 -15 -133 149 -118 219c16 71 52 138 99 170c23 15 48 24 78 25c27 1 60 -7 87 -22l4 12c26 10 91 16 113 -1c-44 -130 -74 -271 -64 -318
c4 -22 12 -37 26 -44c49 -26 109 109 110 154zM233 110c-3 61 7 154 29 247c-21 5 -45 -4 -68 -18c-41 -25 -72 -77 -89 -132c-7 -27 -36 -174 29 -174c31 0 71 35 99 77z" />
    <glyph glyph-name="aacute" unicode="&#xe1;" horiz-adv-x="435" 
d="M466 190c10 5 15 5 24 2c-14 -98 -70 -197 -149 -198c-46 0 -73 19 -88 49c-3 5 -4 10 -6 17c-30 -35 -75 -61 -116 -65c-135 -15 -133 149 -118 219c16 71 52 138 99 170c23 15 48 24 78 25c27 1 60 -7 87 -22l4 12c26 10 91 16 113 -1c-44 -130 -74 -271 -64 -318
c4 -22 12 -37 26 -44c49 -26 109 109 110 154zM242 110c-3 61 7 154 29 247c-21 5 -45 -4 -68 -18c-41 -25 -72 -77 -89 -132c-7 -27 -36 -174 29 -174c31 0 71 35 99 77zM253 466c-17 -8 -47 -9 -67 0c17 53 33 107 50 161c34 10 66 13 92 1z" />
    <glyph glyph-name="acircumflex" unicode="&#xe2;" horiz-adv-x="441" 
d="M465 190c10 5 15 5 24 2c-14 -98 -70 -197 -149 -198c-46 0 -73 19 -88 49c-3 5 -4 10 -6 17c-30 -35 -75 -61 -116 -65c-135 -15 -133 149 -118 219c16 71 52 138 99 170c23 15 48 24 78 25c27 1 60 -7 87 -22l4 12c26 10 91 16 113 -1c-44 -130 -74 -271 -64 -318
c4 -22 12 -37 26 -44c49 -26 109 109 110 154zM241 110c-3 61 7 154 29 247c-21 5 -45 -4 -68 -18c-41 -25 -72 -77 -89 -132c-7 -27 -36 -174 29 -174c31 0 71 35 99 77zM295 628c27 -53 56 -106 82 -159c-6 -8 -22 -7 -33 0l-66 111l-115 -110c-21 -7 -49 -8 -61 0
c49 53 98 106 146 159c9 12 26 9 47 -1z" />
    <glyph glyph-name="adieresis" unicode="&#xe4;" horiz-adv-x="440" 
d="M466 190c10 5 15 5 24 2c-14 -98 -70 -197 -149 -198c-46 0 -73 19 -88 49c-3 5 -4 10 -6 17c-30 -35 -75 -61 -116 -65c-135 -15 -133 149 -118 219c16 71 52 138 99 170c23 15 48 24 78 25c27 1 60 -7 87 -22l4 12c26 10 91 16 113 -1c-44 -130 -74 -271 -64 -318
c4 -22 12 -37 26 -44c49 -26 109 109 110 154zM242 110c-3 61 7 154 29 247c-21 5 -45 -4 -68 -18c-41 -25 -72 -77 -89 -132c-7 -27 -36 -174 29 -174c31 0 71 35 99 77zM188 460c-32 0 -57 22 -57 51c0 30 25 53 57 53c31 0 55 -23 55 -53c0 -29 -24 -51 -55 -51zM326 460
c-32 0 -57 22 -57 51c0 30 25 53 57 53c31 0 55 -23 55 -53c0 -29 -24 -51 -55 -51z" />
    <glyph glyph-name="ampersand" unicode="&#x26;" horiz-adv-x="757" 
d="M757 399c0 2 4 3 3 1c0 -10 -3 -23 -11 -35s-18 -23 -30 -35c-13 -11 -27 -20 -44 -29s-34 -15 -52 -18c-4 0 -9 -2 -13 -2c-38 -128 -118 -271 -259 -286c-295 -25 -294 305 -67 405c-71 57 -85 116 -70 183c-26 11 -59 22 -79 33c-3 0 13 32 22 27c22 -8 46 -15 70 -23
c47 104 133 132 204 132c220 0 120 -252 -121 -194c-11 -46 12 -123 118 -154c5 -2 3 -2 0 -3c-196 -40 -242 -372 -78 -365c119 9 190 142 226 244c-12 1 -25 3 -38 4c-13 2 -27 3 -40 5c-15 1 -28 0 -40 -2c-24 -5 -44 -17 -59 -36c0 -1 -6 -1 -5 1c10 32 27 58 52 77
c23 20 54 32 91 39c17 3 33 5 46 4c15 -1 27 -1 40 -3c13 -1 25 -2 36 -4c12 -1 27 0 41 3c12 2 22 6 32 12c10 5 19 11 25 19zM444 709c-43 0 -93 -51 -116 -109c154 -17 194 109 116 109z" />
    <glyph glyph-name="aring" unicode="&#xe5;" horiz-adv-x="439" 
d="M464 190c10 5 15 5 24 2c-14 -98 -70 -197 -149 -198c-46 0 -73 19 -88 49c-3 5 -4 10 -6 17c-30 -35 -75 -61 -116 -65c-135 -15 -133 149 -118 219c16 71 52 138 99 170c23 15 48 24 78 25c27 1 60 -7 87 -22l4 12c26 10 91 16 113 -1c-44 -130 -74 -271 -64 -318
c4 -22 12 -37 26 -44c49 -26 109 109 110 154zM240 110c-3 61 7 154 29 247c-21 5 -45 -4 -68 -18c-41 -25 -72 -77 -89 -132c-7 -27 -36 -174 29 -174c31 0 71 35 99 77zM304 556c9 -13 16 -29 16 -48c0 -16 -7 -30 -16 -43c-12 -11 -28 -16 -44 -16c-18 0 -33 5 -46 16
c-11 13 -16 27 -16 43c0 19 5 35 16 48c13 12 28 18 46 18c16 0 30 -6 44 -18zM283 486c5 6 9 14 9 22c0 13 -5 22 -9 27c-7 8 -14 10 -23 10c-11 0 -19 -2 -24 -10c-7 -5 -10 -14 -10 -27c0 -8 3 -16 10 -22c4 -6 13 -9 24 -9c9 0 16 3 23 9z" />
    <glyph glyph-name="asterisk" unicode="*" horiz-adv-x="377" 
d="M171 749v0c13 5 27 5 38 0v-108l88 50c9 -6 15 -17 17 -31c-30 -16 -59 -33 -88 -50l88 -51c-2 -14 -8 -23 -17 -31c-30 17 -58 34 -88 51v-109c-12 -4 -25 -4 -38 0v109l-86 -51c-8 8 -14 17 -17 31c29 17 58 34 89 51l-89 50c2 14 6 25 17 31c29 -17 58 -34 86 -50v108
z" />
    <glyph glyph-name="b" unicode="b" horiz-adv-x="387" 
d="M245 408c136 15 134 -149 119 -218c-16 -72 -51 -139 -99 -170c-22 -16 -50 -26 -80 -27c-33 0 -76 12 -105 33c-2 -7 -3 -16 -4 -23c-23 -10 -80 -15 -94 0c21 175 131 627 162 700c39 10 88 17 120 1c-17 -28 -61 -173 -103 -330c26 18 56 31 84 34zM262 197
c8 26 37 175 -30 175c-27 0 -62 -29 -87 -64c-25 -92 -45 -186 -60 -253c22 -20 58 -10 87 9c41 25 73 76 90 133z" />
    <glyph glyph-name="backslash" unicode="\" horiz-adv-x="447" 
d="M141 748c70 -332 140 -664 211 -996c-16 -3 -34 -2 -51 0c-70 332 -141 664 -210 996c11 3 28 6 50 0z" />
    <glyph glyph-name="bar" unicode="|" horiz-adv-x="256" 
d="M120 745c14 10 39 10 55 0v-991c-17 -4 -42 -4 -55 0v991z" />
    <glyph glyph-name="braceleft" unicode="{" horiz-adv-x="400" 
d="M454 753c9 -14 1 -44 -9 -50c-226 0 -93 -289 -143 -407c-7 -18 -17 -31 -29 -41c8 -10 12 -22 12 -37c0 -119 -203 -424 -5 -424c6 -13 1 -38 -9 -45c-290 0 -51 304 -51 449c0 9 -2 18 -8 22c-14 8 -50 6 -68 6c-8 13 -3 44 13 57c21 0 51 -3 71 7c10 5 16 17 20 27
c53 135 -107 436 206 436z" />
    <glyph glyph-name="braceright" unicode="}" horiz-adv-x="354" 
d="M211 282c13 -8 48 -5 66 -5c8 -13 4 -45 -13 -58c-21 0 -51 3 -71 -7c-9 -5 -15 -15 -19 -26c-53 -135 106 -435 -205 -435c-10 15 -1 44 8 50c226 0 93 288 142 405c8 17 17 32 29 42c-7 9 -12 21 -12 36c0 119 203 422 6 422c-6 14 -1 38 9 45c289 0 51 -302 51 -445
c0 -11 2 -20 9 -24z" />
    <glyph glyph-name="bracketleft" unicode="[" horiz-adv-x="377" 
d="M436 753c7 -16 1 -45 -13 -62h-119l-188 -881h120c7 -19 0 -46 -14 -63h-194l214 1006h194z" />
    <glyph glyph-name="bracketright" unicode="]" horiz-adv-x="364" 
d="M189 752h193l-212 -1002h-194c-7 19 0 46 13 63h118l188 877h-119c-6 19 0 46 13 62z" />
    <glyph glyph-name="bullet" unicode="&#x2022;" horiz-adv-x="289" 
d="M166 174c-42 0 -74 29 -74 68c0 40 32 70 74 70c41 0 74 -30 74 -70c0 -39 -33 -68 -74 -68z" />
    <glyph glyph-name="c" unicode="c" horiz-adv-x="327" 
d="M353 189c11 4 16 4 24 2c-8 -209 -286 -260 -359 -112c-47 89 -2 251 86 307c23 15 50 24 81 24c62 2 145 -25 119 -100c-4 -12 -10 -25 -21 -40c-10 -13 -73 -28 -95 -13c18 16 88 100 59 114c-5 3 -14 2 -25 -2c-5 -1 -12 -6 -18 -9c-74 -43 -140 -207 -97 -283
c53 -97 236 -38 246 112z" />
    <glyph glyph-name="cacute" unicode="&#x107;" horiz-adv-x="334" 
d="M359 189c11 4 16 4 24 2c-8 -209 -286 -260 -359 -112c-47 89 -2 251 86 307c23 15 50 24 81 24c62 2 145 -25 119 -100c-4 -12 -10 -25 -21 -40c-10 -13 -73 -28 -95 -13c18 16 88 100 59 114c-5 3 -14 2 -25 -2c-5 -1 -12 -6 -18 -9c-74 -43 -140 -207 -97 -283
c53 -97 236 -38 246 112zM250 466c-17 -8 -47 -9 -67 0c17 53 33 107 50 161c34 10 66 13 92 1z" />
    <glyph glyph-name="ccedilla" unicode="&#xe7;" horiz-adv-x="330" 
d="M380 190c-5 -135 -123 -204 -226 -196c-4 -12 -8 -24 -13 -38c164 43 133 -146 -1 -146c-71 0 -89 75 -32 99c18 6 45 -13 38 -17c-56 -4 -51 -69 -5 -69c43 0 73 50 61 86c-12 32 -57 36 -95 25c2 6 12 36 21 64c-46 9 -86 36 -107 79c-46 91 0 251 87 306
c22 16 49 25 79 26c63 1 146 -27 121 -100c-4 -12 -11 -25 -20 -40c-12 -12 -74 -26 -98 -12c19 15 90 98 60 112c-6 2 -14 2 -24 -2c-7 -2 -12 -4 -18 -8c-74 -43 -139 -205 -96 -284c52 -97 234 -36 244 114c11 5 17 4 24 1z" />
    <glyph glyph-name="cent" unicode="&#xa2;" horiz-adv-x="483" 
d="M361 242c3 6 24 4 23 -1c-28 -97 -87 -148 -162 -148c-12 0 -23 2 -32 4c-8 -39 -15 -78 -22 -114c-10 -8 -16 -9 -35 -9l29 134c-150 78 -63 460 93 473c3 1 6 1 8 1l28 125c26 6 37 6 72 6c-18 -43 -35 -89 -51 -138c73 -23 77 -91 46 -141c-5 -15 -61 -32 -80 -15
c61 54 54 124 27 134c-43 -135 -79 -283 -108 -420c10 -8 23 -12 39 -12c57 1 100 43 125 121zM252 530c-64 -70 -118 -277 -78 -367z" />
    <glyph glyph-name="colon" unicode=":" horiz-adv-x="278" 
d="M120 52c-32 0 -57 22 -57 51c0 30 25 53 57 53c31 0 55 -23 55 -53c0 -29 -24 -51 -55 -51zM156 258c-32 0 -57 22 -57 51c0 30 25 53 57 53c31 0 55 -23 55 -53c0 -29 -24 -51 -55 -51z" />
    <glyph glyph-name="comma" unicode="," horiz-adv-x="187" 
d="M121 75c13 -17 16 -36 14 -56c-6 -58 -57 -121 -111 -111c-8 1 -9 10 -3 12c26 15 65 46 35 80c-14 11 -32 22 -27 54c8 47 65 60 92 21z" />
    <glyph glyph-name="copyright" unicode="&#xa9;" horiz-adv-x="662" 
d="M434 260c3 5 16 5 16 0c-19 -66 -59 -101 -111 -101c-157 0 -97 325 22 334c14 2 27 0 39 -3c50 -16 44 -63 22 -98c-3 -9 -41 -23 -55 -9c43 37 48 88 27 91c-69 15 -155 -297 -44 -296c38 2 67 31 84 82zM528 508c47 -47 75 -111 75 -181c0 -71 -28 -136 -75 -181
c-46 -46 -111 -75 -181 -75c-71 0 -134 29 -181 75c-46 45 -74 110 -74 181c0 70 28 134 74 181c47 46 110 75 181 75c70 0 135 -29 181 -75zM510 165c41 41 66 98 66 162c0 63 -25 121 -66 162c-42 41 -100 67 -163 67c-64 0 -121 -26 -162 -67s-68 -99 -68 -162
c0 -64 27 -121 68 -162c41 -43 98 -68 162 -68c63 0 121 25 163 68z" />
    <glyph glyph-name="d" unicode="d" horiz-adv-x="438" 
d="M459 190c10 6 15 4 22 2c-12 -98 -68 -197 -149 -198c-44 0 -73 21 -87 50c-2 5 -3 10 -5 17c-30 -35 -75 -61 -116 -66c-135 -15 -133 151 -118 220c17 70 50 138 97 170c23 14 51 23 78 24c29 1 62 -7 90 -21c28 134 66 266 87 314c39 10 88 17 119 2
c-45 -69 -174 -531 -156 -624c4 -21 12 -38 27 -44c49 -22 110 110 111 154zM234 111c-1 63 13 155 30 247c-20 5 -46 -4 -70 -19c-38 -26 -71 -76 -88 -131c-7 -28 -37 -174 30 -174c32 0 71 35 98 77z" />
    <glyph glyph-name="degree" unicode="&#xb0;" horiz-adv-x="333" 
d="M220 714c64 1 127 -61 112 -166c-15 -96 -70 -140 -122 -139c-64 2 -124 65 -109 169c15 93 67 136 119 136zM283 549c13 91 -5 140 -36 147c-40 9 -92 -44 -102 -119c-13 -101 13 -149 50 -150c38 -1 78 50 88 122z" />
    <glyph glyph-name="dieresis" unicode="&#xa8;" horiz-adv-x="427" 
d="M128 582c-32 0 -57 22 -57 51c0 30 25 53 57 53c31 0 55 -23 55 -53c0 -29 -24 -51 -55 -51zM316 582c-32 0 -57 22 -57 51c0 30 25 53 57 53c31 0 55 -23 55 -53c0 -29 -24 -51 -55 -51z" />
    <glyph glyph-name="divide" unicode="&#xf7;" horiz-adv-x="516" 
d="M285 305c-32 0 -57 22 -57 51c0 30 25 53 57 53c31 0 55 -23 55 -53c0 -29 -24 -51 -55 -51zM238 -6c-32 0 -57 22 -57 51c0 30 25 53 57 53c31 0 55 -23 55 -53c0 -29 -24 -51 -55 -51zM427 162c11 20 17 47 12 72h-333c-7 -15 -18 -47 -12 -72h333z" />
    <glyph glyph-name="dollar" unicode="$" horiz-adv-x="453" 
d="M291 462c63 -35 72 66 5 85c-17 -52 -32 -107 -47 -163c49 -50 111 -105 91 -194c-15 -70 -90 -109 -162 -112c-8 -39 -16 -77 -22 -113c-10 -7 -17 -8 -35 -8l26 122c-70 8 -128 54 -107 142c8 34 31 64 68 79c12 4 59 -15 68 -37c-43 -2 -74 -32 -83 -63
c-20 -60 15 -91 60 -94l48 222c-43 42 -89 82 -85 139c4 59 65 108 139 110l27 129c27 5 37 6 73 6c-18 -44 -34 -91 -51 -140c109 -33 104 -195 -14 -162c-12 4 -15 57 1 52zM266 186c9 46 -10 82 -39 114c-16 -65 -30 -129 -43 -191c38 8 74 34 82 77zM194 488
c-4 -26 8 -49 26 -72l28 131c-29 -9 -50 -32 -54 -59z" />
    <glyph glyph-name="e" unicode="e" horiz-adv-x="319" 
d="M350 189c11 4 16 4 24 1c-8 -208 -286 -259 -359 -111c-47 89 -1 250 87 306c22 15 50 23 79 24c37 2 66 -6 87 -18c26 -18 40 -42 40 -70c0 -73 -92 -128 -153 -153c-25 -10 -47 -17 -65 -18c-2 -29 3 -54 15 -74c52 -97 235 -36 245 113zM200 360
c-45 -29 -90 -104 -105 -176c10 3 19 6 27 11c50 25 92 67 116 116c13 25 17 48 7 57c-4 5 -13 5 -27 0c-5 -2 -12 -6 -18 -8z" />
    <glyph glyph-name="eacute" unicode="&#xe9;" horiz-adv-x="335" 
d="M359 189c11 4 16 4 24 1c-8 -208 -286 -259 -359 -111c-47 89 -1 250 87 306c22 15 50 23 79 24c37 2 66 -6 87 -18c26 -18 40 -42 40 -70c0 -73 -92 -128 -153 -153c-25 -10 -47 -17 -65 -18c-2 -29 3 -54 15 -74c52 -97 235 -36 245 113zM209 360
c-45 -29 -90 -104 -105 -176c10 3 19 6 27 11c50 25 92 67 116 116c13 25 17 48 7 57c-4 5 -13 5 -27 0c-5 -2 -12 -6 -18 -8zM249 466c-17 -8 -47 -9 -67 0c17 53 33 107 50 161c34 10 66 13 92 1z" />
    <glyph glyph-name="eight" unicode="8" horiz-adv-x="597" 
d="M425 451c269 -155 167 -439 -99 -455c-297 -18 -422 323 -79 436c-163 112 -122 309 68 319c261 16 302 -202 110 -300zM330 709c-125 -9 -89 -178 27 -228c143 58 148 241 -27 228zM319 37c128 10 204 251 -4 356c-256 -76 -160 -368 4 -356z" />
    <glyph glyph-name="ellipsis" unicode="&#x2026;" horiz-adv-x="616" 
d="M139 -6c-32 0 -57 22 -57 51c0 30 25 53 57 53c31 0 55 -23 55 -53c0 -29 -24 -51 -55 -51zM327 -6c-32 0 -57 22 -57 51c0 30 25 53 57 53c31 0 55 -23 55 -53c0 -29 -24 -51 -55 -51zM514 -6c-32 0 -57 22 -57 51c0 30 25 53 57 53c31 0 55 -23 55 -53
c0 -29 -24 -51 -55 -51z" />
    <glyph glyph-name="emdash" unicode="&#x2014;" horiz-adv-x="563" 
d="M467 226h-346c-6 26 5 59 13 74h346c5 -26 -1 -53 -13 -74z" />
    <glyph glyph-name="endash" unicode="&#x2013;" horiz-adv-x="507" 
d="M415 226h-295c-5 26 4 59 11 74h295c4 -26 -1 -53 -11 -74z" />
    <glyph glyph-name="equal" unicode="=" horiz-adv-x="602" 
d="M511 311h-377c-7 25 4 58 13 73h378c5 -25 -2 -53 -14 -73zM475 131h-377c-7 25 4 58 13 73h378c5 -25 -2 -53 -14 -73z" />
    <glyph glyph-name="exclam" unicode="!" horiz-adv-x="255" 
d="M154 165c-15 -5 -35 -7 -55 0c25 166 58 372 82 539c39 13 90 14 114 0c-44 -167 -97 -373 -141 -539zM110 -6c-32 0 -57 22 -57 51c0 30 25 53 57 53c31 0 55 -23 55 -53c0 -29 -24 -51 -55 -51z" />
    <glyph glyph-name="exclamdown" unicode="&#xa1;" horiz-adv-x="292" 
d="M160 276c15 5 34 8 54 0c-25 -163 -57 -352 -81 -515c-39 -13 -88 -15 -112 0c44 163 96 352 139 515zM202 339c-32 0 -57 22 -57 51c0 30 25 53 57 53c31 0 55 -23 55 -53c0 -29 -24 -51 -55 -51z" />
    <glyph glyph-name="f" unicode="f" horiz-adv-x="255" 
d="M361 691c48 -28 59 -75 20 -139c-9 -16 -90 -31 -105 -14c27 22 42 51 51 85c12 37 -8 56 -47 48c-24 -5 -41 -26 -48 -51c-26 -75 -41 -134 -61 -211h60c13 -10 -2 -36 -7 -39h-64c-33 -131 -69 -272 -102 -404c78 -2 136 -20 184 -43c8 -6 -15 -27 -20 -25
c-56 20 -124 31 -174 27c-7 -20 -9 -34 -21 -66c-21 -59 -47 -105 -117 -112c-155 -16 -156 198 51 219c28 131 60 273 88 404h-47c-7 9 4 38 11 39h45c19 69 41 184 80 241c12 17 30 35 58 47c9 4 20 7 30 10c43 10 93 8 135 -16zM-148 -202c43 -36 88 74 97 120
c-102 -22 -121 -99 -97 -120z" />
    <glyph glyph-name="five" unicode="5" horiz-adv-x="597" 
d="M202 479c495 138 492 -484 67 -484c-226 0 -316 246 -151 323c56 20 150 -37 129 -52c-175 -13 -127 -229 24 -229c132 0 226 201 161 307c-63 102 -210 92 -328 59c8 34 49 295 55 349c139 -17 285 -32 413 0c25 0 3 -98 -45 -111c-65 -17 -197 -6 -284 22
c-15 -66 -28 -120 -41 -184z" />
    <glyph glyph-name="four" unicode="4" horiz-adv-x="609" 
d="M563 319c26 0 7 -95 -43 -102c-19 -3 -45 -7 -67 -8c-14 -69 -27 -142 -36 -203c-23 -12 -92 -18 -106 1c5 64 15 134 26 198c-91 1 -210 0 -305 18c1 20 10 36 22 55c101 155 262 334 396 458c41 14 106 15 143 9c-45 -135 -88 -292 -122 -451c49 10 73 20 92 25z
M349 279c24 112 68 262 95 371c-75 -101 -222 -285 -273 -385c56 -2 132 7 178 14z" />
    <glyph glyph-name="g" unicode="g" horiz-adv-x="415" 
d="M477 -73c9 -5 -15 -28 -22 -25c-56 20 -132 31 -176 27c-5 -19 -8 -32 -19 -65c-21 -60 -48 -106 -118 -114c-157 -17 -162 199 49 221c4 18 9 41 14 57c-24 -15 -53 -28 -78 -30c-208 -23 -161 405 57 411c32 1 78 -13 111 -34l6 23c41 12 93 18 126 0
c-37 -76 -102 -309 -132 -428c77 -2 134 -19 182 -43zM82 -198c47 -35 87 73 96 121c-104 -24 -121 -101 -96 -121zM220 90c25 93 43 164 68 256c-155 74 -277 -307 -149 -306c25 0 56 20 81 50z" />
    <glyph glyph-name="germandbls" unicode="&#xdf;" horiz-adv-x="618" 
d="M498 416c185 -62 93 -458 -219 -418c-12 3 -12 36 8 40c228 0 294 315 136 355c-12 1 -10 37 13 39c128 31 135 216 47 216c-57 0 -105 -59 -115 -109c-52 -241 -112 -505 -163 -746c-24 -42 -82 -49 -111 -38l170 784c20 94 88 172 179 173c177 4 198 -229 55 -296z" />
    <glyph glyph-name="greater" unicode="&#x3e;" horiz-adv-x="424" 
d="M119 119l166 143c-43 44 -86 89 -130 133c6 20 22 35 38 42l171 -176c-69 -62 -137 -123 -205 -185c-23 8 -34 26 -40 43z" />
    <glyph glyph-name="guillemotleft" unicode="&#xab;" horiz-adv-x="588" 
d="M343 403l-173 -148c46 -46 91 -91 135 -137c-6 -22 -22 -37 -39 -44l-177 182c70 64 142 128 212 192c25 -7 35 -27 42 -45zM542 403l-173 -148c45 -46 91 -91 136 -137c-7 -22 -23 -37 -39 -44l-178 182c71 64 141 128 213 192c24 -7 33 -27 41 -45z" />
    <glyph glyph-name="guillemotright" unicode="&#xbb;" horiz-adv-x="535" 
d="M242 119l173 148c-46 46 -91 91 -135 137c6 22 22 37 39 44l177 -182c-70 -64 -142 -128 -212 -192c-25 7 -35 27 -42 45zM43 119l173 148c-45 46 -91 91 -136 137c7 22 23 37 39 44l178 -182c-71 -64 -141 -128 -213 -192c-24 7 -33 27 -41 45z" />
    <glyph glyph-name="h" unicode="h" horiz-adv-x="415" 
d="M438 192c9 5 14 4 22 1c-13 -99 -67 -198 -144 -199c-52 0 -92 26 -98 86c-2 21 3 54 9 91c16 92 58 198 11 198c-33 0 -79 -61 -112 -123c-23 -97 -43 -185 -53 -242c-21 -9 -78 -15 -92 0c21 175 131 625 161 699c39 10 89 17 119 1c-18 -30 -64 -190 -108 -355
c27 34 59 61 97 61c131 0 84 -166 64 -242c-15 -57 -24 -106 15 -130c46 -28 108 107 109 154z" />
    <glyph glyph-name="hyphen" unicode="-" horiz-adv-x="422" 
d="M371 226h-283c-5 25 3 59 10 74h283c4 -25 -1 -54 -10 -74z" />
    <glyph glyph-name="i" unicode="i" horiz-adv-x="204" 
d="M115 486c-32 0 -57 22 -57 51c0 30 25 53 57 53c31 0 55 -23 55 -53c0 -29 -24 -51 -55 -51zM227 191c9 5 14 5 23 2c-14 -99 -70 -198 -151 -199c-45 0 -72 19 -87 51c-25 51 -9 205 29 353c26 11 90 18 112 0c-43 -131 -73 -272 -65 -318c4 -21 12 -35 26 -43
c48 -26 112 108 113 154z" />
    <glyph glyph-name="iacute" unicode="&#xed;" horiz-adv-x="232" 
d="M254 191c9 5 14 5 23 2c-14 -99 -70 -198 -151 -199c-45 0 -72 19 -87 51c-25 51 -9 205 29 353c26 11 90 18 112 0c-43 -131 -73 -272 -65 -318c4 -21 12 -35 26 -43c48 -26 112 108 113 154zM163 466c-17 -8 -47 -9 -67 0c17 53 33 107 50 161c34 10 66 13 92 1z" />
    <glyph glyph-name="icircumflex" unicode="&#xee;" horiz-adv-x="223" 
d="M245 191c9 5 14 5 23 2c-14 -99 -70 -198 -151 -199c-45 0 -72 19 -87 51c-25 51 -9 205 29 353c26 11 90 18 112 0c-43 -131 -73 -272 -65 -318c4 -21 12 -35 26 -43c48 -26 112 108 113 154zM181 628c27 -53 56 -106 82 -159c-6 -8 -22 -7 -33 0l-66 111l-115 -110
c-21 -7 -49 -8 -61 0c49 53 98 106 146 159c9 12 26 9 47 -1z" />
    <glyph glyph-name="j" unicode="j" horiz-adv-x="230" 
d="M267 -72c8 -5 -16 -27 -22 -25c-62 20 -131 29 -172 28c-7 -20 -10 -34 -21 -67c-22 -59 -53 -106 -124 -113c-158 -17 -162 199 50 221c38 152 66 278 106 428c40 11 93 17 125 0c-38 -83 -102 -323 -127 -427c79 -2 135 -21 185 -45zM-132 -196c44 -36 92 86 99 120
c-105 -23 -124 -101 -99 -120zM173 492c-33 0 -60 24 -60 54c0 31 27 56 60 56c31 0 58 -25 58 -56c0 -30 -27 -54 -58 -54z" />
    <glyph glyph-name="k" unicode="k" horiz-adv-x="373" 
d="M396 190c9 5 15 4 23 2c-12 -98 -66 -197 -147 -197c-46 0 -72 19 -86 49c-14 26 -16 76 -12 137c-24 -20 -47 -34 -69 -41c-13 -54 -22 -101 -29 -136c-21 -9 -78 -15 -92 0c20 174 131 625 161 697c38 10 89 17 121 1c-25 -38 -99 -306 -149 -514c64 52 96 128 140 206
c11 11 75 25 89 2c-30 -60 -74 -121 -123 -171c21 -6 43 -17 48 -32c-10 -50 -13 -91 -10 -114c5 -20 13 -36 26 -43c50 -26 108 109 109 154z" />
    <glyph glyph-name="l" unicode="l" horiz-adv-x="209" 
d="M228 191v0c9 5 14 5 22 2c-12 -99 -69 -198 -150 -199c-45 -1 -74 19 -88 50c-47 99 69 557 113 658c39 11 89 17 120 2c-45 -69 -174 -530 -156 -624c4 -21 10 -35 25 -42c48 -27 111 107 114 153z" />
    <glyph glyph-name="less" unicode="&#x3c;" horiz-adv-x="410" 
d="M358 394l-166 -143c43 -44 86 -89 130 -133c-6 -20 -22 -35 -38 -42l-171 176c69 62 137 123 205 185c23 -8 34 -26 40 -43z" />
    <glyph glyph-name="m" unicode="m" horiz-adv-x="634" 
d="M661 190c9 6 15 5 22 3c-12 -99 -64 -199 -142 -199c-49 -1 -90 26 -97 85c-7 65 76 291 20 291c-37 0 -91 -88 -124 -156c-19 -84 -34 -161 -42 -212c-22 -8 -78 -14 -92 0c0 44 82 370 38 368c-40 0 -103 -108 -132 -177c-13 -64 -24 -125 -36 -191
c-22 -8 -79 -14 -92 0c20 176 43 349 74 421c39 11 88 16 119 0c-12 -20 -26 -60 -38 -112c36 61 96 126 166 86c37 -21 45 -61 42 -105c35 65 101 150 178 105c97 -56 -2 -221 2 -309c1 -22 9 -40 28 -52c45 -27 104 109 106 154z" />
    <glyph glyph-name="multiply" unicode="&#xd7;" horiz-adv-x="481" 
d="M295 250c36 -34 74 -70 109 -103c-10 -19 -36 -36 -60 -43l-109 103c-42 -29 -84 -58 -124 -86c-23 13 -43 30 -57 50l125 86c-37 34 -77 72 -113 105c12 19 39 40 61 42l111 -104c37 23 71 48 107 72c28 -7 46 -29 56 -49z" />
    <glyph glyph-name="n" unicode="n" horiz-adv-x="433" 
d="M457 191c10 4 15 4 23 2c-13 -99 -67 -198 -144 -199c-50 0 -92 26 -99 85c-6 65 76 290 21 290c-35 0 -87 -72 -119 -139c-17 -72 -33 -152 -46 -227c-22 -9 -78 -15 -92 0c20 176 49 349 80 420c39 11 88 16 120 0c-10 -16 -20 -41 -32 -80c30 41 70 73 115 65
c184 -28 -37 -321 65 -372c49 -24 107 109 108 155z" />
    <glyph glyph-name="nacute" unicode="&#x144;" horiz-adv-x="412" 
d="M441 191c10 4 15 4 23 2c-13 -99 -67 -198 -144 -199c-50 0 -92 26 -99 85c-6 65 76 290 21 290c-35 0 -87 -72 -119 -139c-17 -72 -33 -152 -46 -227c-22 -9 -78 -15 -92 0c20 176 49 348 80 419c39 11 88 18 120 2c-10 -16 -20 -42 -32 -81c30 41 70 73 115 65
c184 -28 -37 -321 65 -372c49 -24 107 109 108 155zM242 466c-17 -8 -47 -9 -67 0c17 53 33 107 50 161c34 10 66 13 92 1z" />
    <glyph glyph-name="nine" unicode="9" horiz-adv-x="604" 
d="M332 751c477 -17 234 -835 -252 -737c-23 5 -27 35 -18 45c153 -35 295 85 351 222c-170 -46 -283 8 -333 81c-96 138 2 398 252 389zM439 341c59 139 30 369 -114 369s-199 -186 -132 -295c48 -77 145 -95 246 -74z" />
    <glyph glyph-name="numbersign" unicode="#" horiz-adv-x="644" 
d="M569 300l-132 1c-7 -26 -12 -52 -18 -79c51 3 99 6 140 8c1 -32 -5 -64 -19 -97h-141c-13 -61 -25 -121 -37 -177c-8 -8 -16 -9 -34 -9l39 186h-156c-14 -61 -25 -121 -36 -177c-10 -8 -16 -9 -35 -9l40 186h-104c8 25 9 49 9 71c33 3 71 5 112 7l19 91h-120
c8 24 10 47 9 70c43 3 73 6 128 9l70 323c26 6 38 7 74 7c-40 -98 -76 -211 -107 -328c50 2 104 4 153 7l68 314c27 6 38 7 74 7c-39 -96 -74 -206 -104 -319c35 2 97 4 126 6c1 -32 -6 -65 -18 -98zM387 220l17 81h-155c-8 -29 -14 -59 -21 -89c51 3 106 5 159 8z" />
    <glyph glyph-name="o" unicode="o" horiz-adv-x="403" 
d="M447 177c6 0 4 -24 0 -26c-32 -15 -77 -21 -104 -19c-14 -53 -36 -82 -72 -107c-33 -22 -72 -33 -110 -31c-258 7 -173 417 20 415c35 0 79 -8 108 -31c3 -8 -3 -23 -9 -25c-134 115 -271 -297 -139 -321c41 -7 98 40 122 115c-106 48 -78 152 -44 182
c47 42 145 -13 129 -166c15 -4 66 0 99 14zM272 181c21 111 -17 132 -33 105c-12 -18 -25 -71 33 -105z" />
    <glyph glyph-name="oacute" unicode="&#xf3;" horiz-adv-x="406" 
d="M452 177c6 0 4 -24 0 -26c-32 -15 -77 -21 -104 -19c-14 -53 -36 -82 -72 -107c-33 -22 -72 -33 -110 -31c-258 7 -173 417 20 415c35 0 79 -8 108 -31c3 -8 -3 -23 -9 -25c-134 115 -271 -297 -139 -321c41 -7 98 40 122 115c-106 48 -78 152 -44 182
c47 42 145 -13 129 -166c15 -4 66 0 99 14zM277 181c21 111 -17 132 -33 105c-12 -18 -25 -71 33 -105zM220 466c-17 -8 -47 -9 -67 0c17 53 33 107 50 161c34 10 66 13 92 1z" />
    <glyph glyph-name="ocircumflex" unicode="&#xf4;" horiz-adv-x="409" 
d="M453 177c6 0 4 -24 0 -26c-32 -15 -77 -21 -104 -19c-14 -53 -36 -82 -72 -107c-33 -22 -72 -33 -110 -31c-258 7 -173 417 20 415c35 0 79 -8 108 -31c3 -8 -3 -23 -9 -25c-134 115 -271 -297 -139 -321c41 -7 98 40 122 115c-106 48 -78 152 -44 182
c47 42 145 -13 129 -166c15 -4 66 0 99 14zM278 181c21 111 -17 132 -33 105c-12 -18 -25 -71 33 -105zM258 628c27 -53 56 -106 82 -159c-6 -8 -22 -7 -33 0l-66 111l-115 -110c-21 -7 -49 -8 -61 0c49 53 98 106 146 159c9 12 26 9 47 -1z" />
    <glyph glyph-name="odieresis" unicode="&#xf6;" horiz-adv-x="405" 
d="M452 177c6 0 4 -24 0 -26c-32 -15 -77 -21 -104 -19c-14 -53 -36 -82 -72 -107c-33 -22 -72 -33 -110 -31c-258 7 -173 417 20 415c35 0 79 -8 108 -31c3 -8 -3 -23 -9 -25c-134 115 -271 -297 -139 -321c41 -7 98 40 122 115c-106 48 -78 152 -44 182
c47 42 145 -13 129 -166c15 -4 66 0 99 14zM277 181c21 111 -17 132 -33 105c-12 -18 -25 -71 33 -105zM144 460c-32 0 -57 22 -57 51c0 30 25 53 57 53c31 0 55 -23 55 -53c0 -29 -24 -51 -55 -51zM282 460c-32 0 -57 22 -57 51c0 30 25 53 57 53c31 0 55 -23 55 -53
c0 -29 -24 -51 -55 -51z" />
    <glyph glyph-name="ohungarumlaut" unicode="&#x151;" horiz-adv-x="404" 
d="M450 177c6 0 4 -24 0 -26c-32 -15 -77 -21 -104 -19c-14 -53 -36 -82 -72 -107c-33 -22 -72 -33 -110 -31c-258 7 -173 417 20 415c35 0 79 -8 108 -31c3 -8 -3 -23 -9 -25c-134 115 -271 -297 -139 -321c41 -7 98 40 122 115c-106 48 -78 152 -44 182
c47 42 145 -13 129 -166c15 -4 66 0 99 14zM275 181c21 111 -17 132 -33 105c-12 -18 -25 -71 33 -105zM289 466c-17 -8 -47 -9 -67 0c17 53 33 107 50 161c34 10 66 13 92 1zM171 466c-17 -8 -47 -9 -67 0c17 53 33 107 50 161c34 10 66 13 92 1z" />
    <glyph glyph-name="one" unicode="1" horiz-adv-x="383" 
d="M268 739c41 14 102 15 139 10c-80 -223 -157 -516 -199 -743c-21 -12 -87 -18 -100 0c19 188 91 460 139 645c-27 -26 -61 -54 -98 -71c-23 -17 -126 36 -108 54c73 21 176 65 227 105z" />
    <glyph glyph-name="onesuperior" unicode="&#xb9;" horiz-adv-x="236" 
d="M179 748c16 4 41 4 56 3c-31 -88 -63 -206 -78 -294c-9 -6 -35 -8 -40 0c7 74 36 181 54 254c-10 -10 -23 -20 -38 -27c-9 -7 -50 14 -42 20c28 8 68 27 88 44z" />
    <glyph glyph-name="ordmasculine" unicode="&#xba;" horiz-adv-x="355" 
d="M390 608c4 0 3 -17 0 -18c-22 -11 -54 -15 -73 -14c-9 -37 -25 -57 -50 -75c-23 -15 -50 -23 -77 -21c-180 5 -121 291 14 290c25 0 55 -6 76 -22c2 -5 -2 -16 -7 -17c-93 80 -189 -208 -97 -225c29 -5 69 28 86 81c-75 33 -55 106 -31 127c33 29 101 -9 90 -116
c10 -3 46 0 69 10zM268 610c15 78 -12 93 -23 74c-9 -13 -18 -50 23 -74z" />
    <glyph glyph-name="p" unicode="p" horiz-adv-x="377" 
d="M250 408c129 15 127 -150 113 -220c-15 -70 -49 -137 -93 -168c-22 -16 -47 -24 -76 -26c-31 -1 -71 11 -100 31c-22 -91 -46 -208 -56 -266c-22 -9 -79 -15 -93 0c21 175 115 592 146 664c40 12 88 15 119 0c-5 -7 -9 -18 -15 -35c17 11 38 17 55 20zM266 196
c9 26 35 176 -27 176c-19 0 -42 -17 -62 -39c-24 -73 -52 -178 -76 -280c21 -17 54 -7 82 12c38 24 68 74 83 131z" />
    <glyph glyph-name="parenleft" unicode="(" horiz-adv-x="237" 
d="M332 725c-92 -46 -158 -165 -195 -257c-23 -61 -43 -125 -57 -193c-13 -69 -20 -135 -20 -199c0 -103 14 -219 80 -303c-3 -13 -16 -22 -31 -24c-86 96 -114 228 -114 351c0 65 8 132 23 200c16 67 38 129 66 189c50 107 130 210 238 263c11 -4 14 -19 10 -27v0z" />
    <glyph glyph-name="parenright" unicode=")" horiz-adv-x="266" 
d="M158 752c85 -93 112 -226 112 -349c0 -66 -7 -132 -23 -198c-15 -68 -36 -131 -64 -189c-51 -106 -131 -210 -238 -263c-10 5 -13 20 -9 28c91 44 157 165 194 255c23 61 43 126 57 193c13 68 19 135 19 199c0 102 -14 219 -79 301c3 13 15 21 31 23z" />
    <glyph glyph-name="percent" unicode="%" 
d="M572 748c15 4 43 5 62 0c-154 -249 -307 -500 -461 -749c-19 -6 -46 -3 -62 0c154 249 307 500 461 749zM537 334c71 1 141 -67 124 -184c-15 -105 -77 -152 -135 -151c-70 2 -137 71 -119 185c15 103 73 150 130 150zM607 150c14 102 -5 157 -40 166
c-44 9 -101 -51 -112 -133c-16 -110 15 -164 54 -165c42 -2 86 56 98 132zM323 521c-17 -106 -76 -154 -136 -151c-68 1 -135 72 -118 184c15 105 73 150 130 151c71 0 141 -68 124 -184zM117 553c-16 -108 15 -164 54 -165c42 -1 86 57 98 134c14 101 -5 156 -40 164
c-44 9 -101 -50 -112 -133z" />
    <glyph glyph-name="period" unicode="." horiz-adv-x="187" 
d="M85 -6c-32 0 -57 22 -57 51c0 30 25 53 57 53c31 0 55 -23 55 -53c0 -29 -24 -51 -55 -51z" />
    <glyph glyph-name="perthousand" unicode="&#x2030;" horiz-adv-x="1050" 
d="M559 332c72 1 142 -69 124 -185c-15 -107 -76 -154 -136 -153c-69 1 -137 72 -119 187c14 105 73 150 131 151zM629 147c14 102 -6 159 -40 166c-44 9 -102 -51 -114 -135c-16 -110 17 -164 56 -165c42 -2 87 56 98 134zM342 520c-15 -107 -75 -154 -134 -152
c-72 1 -138 71 -121 185c15 107 74 151 131 154c72 1 143 -71 124 -187zM134 552c-16 -109 16 -164 56 -166c42 -1 87 57 99 134c13 102 -5 159 -41 167c-44 9 -102 -51 -114 -135zM595 749c15 4 42 6 63 0c-157 -252 -311 -503 -467 -755c-19 -6 -46 -4 -63 0
c157 252 311 503 467 755zM858 332c71 1 141 -69 124 -185c-16 -107 -78 -154 -136 -153c-70 1 -137 72 -119 187c13 105 73 150 131 151zM927 147c16 102 -6 159 -40 166c-44 9 -102 -51 -113 -135c-15 -110 17 -164 56 -165c42 -2 87 56 97 134z" />
    <glyph glyph-name="plus" unicode="+" horiz-adv-x="558" 
d="M487 300c5 -21 -2 -53 -17 -74h-149c-11 -49 -22 -100 -32 -150c-28 -5 -65 -5 -88 0l33 150h-149c-4 22 1 57 16 74h149c8 42 19 85 28 128c24 13 64 9 87 0l-29 -128h151z" />
    <glyph glyph-name="plusminus" unicode="&#xb1;" horiz-adv-x="551" 
d="M499 404c5 -21 -2 -53 -17 -74h-149c-11 -49 -22 -100 -32 -150c-28 -5 -65 -5 -88 0l33 150h-149c-4 22 1 57 16 74h149c8 42 19 85 28 128c24 13 64 9 87 0l-29 -128h151zM404 60c10 21 16 53 11 80h-322c-8 -16 -17 -53 -11 -80h322z" />
    <glyph glyph-name="q" unicode="q" horiz-adv-x="403" 
d="M297 423c39 9 87 17 119 0c-35 -52 -140 -489 -172 -664c-21 -9 -77 -14 -91 0c7 64 27 179 44 267c-23 -18 -50 -30 -76 -32c-130 -14 -127 149 -114 220c16 70 51 139 95 169c22 16 48 25 77 26s71 -11 101 -33c5 16 14 38 17 47zM209 86c21 100 45 198 63 263
c-22 20 -55 10 -81 -10c-40 -24 -70 -76 -86 -132c-9 -26 -36 -177 29 -177c23 0 53 24 75 56z" />
    <glyph glyph-name="question" unicode="?" horiz-adv-x="493" 
d="M297 456c-20 -30 -89 -58 -103 -53c-117 61 -54 306 150 308c64 0 126 -27 149 -81c80 -188 -208 -338 -208 -469h-59c0 168 247 297 176 450c-18 37 -53 60 -86 60c-124 2 -140 -204 -19 -215zM256 -6c-32 0 -57 22 -57 51c0 30 25 53 57 53c31 0 55 -23 55 -53
c0 -29 -24 -51 -55 -51z" />
    <glyph glyph-name="questiondown" unicode="&#xbf;" horiz-adv-x="474" 
d="M248 5c20 30 89 58 103 53c117 -61 54 -306 -150 -308c-64 0 -126 27 -149 81c-80 188 209 320 209 451h59c0 -168 -248 -279 -177 -432c18 -37 53 -60 86 -60c124 -2 140 204 19 215zM292 349c-32 0 -57 22 -57 51c0 30 25 53 57 53c31 0 55 -23 55 -53
c0 -29 -24 -51 -55 -51z" />
    <glyph glyph-name="quotedbl" unicode="&#x22;" horiz-adv-x="359" 
d="M368 602c13 -17 16 -36 14 -56c-6 -58 -57 -121 -111 -111c-8 1 -9 10 -3 12c26 15 65 46 35 80c-14 11 -32 22 -27 54c8 47 65 60 92 21zM217 602c13 -17 16 -36 14 -56c-6 -58 -57 -121 -111 -111c-8 1 -9 10 -3 12c26 15 65 46 35 80c-14 11 -32 22 -27 54
c8 47 65 60 92 21z" />
    <glyph glyph-name="quotedblbase" unicode="&#x201e;" horiz-adv-x="389" 
d="M176 69c13 -17 16 -36 14 -56c-6 -58 -57 -121 -111 -111c-8 1 -9 10 -3 12c26 15 65 46 35 80c-14 11 -32 22 -27 54c8 47 65 60 92 21zM334 69c13 -17 16 -36 14 -56c-6 -58 -57 -121 -111 -111c-8 1 -9 10 -3 12c26 15 65 46 35 80c-14 11 -32 22 -27 54
c8 47 65 60 92 21z" />
    <glyph glyph-name="quotedblleft" unicode="&#x201c;" horiz-adv-x="380" 
d="M262 456c-13 17 -16 36 -14 56c6 58 57 121 111 111c8 -1 9 -10 3 -12c-26 -15 -65 -46 -35 -80c14 -11 32 -22 27 -54c-8 -47 -65 -60 -92 -21zM104 456c-13 17 -16 36 -14 56c6 58 57 121 111 111c8 -1 9 -10 3 -12c-26 -15 -65 -46 -35 -80c14 -11 32 -22 27 -54
c-8 -47 -65 -60 -92 -21z" />
    <glyph glyph-name="quotedblright" unicode="&#x201d;" horiz-adv-x="373" 
d="M198 602c13 -17 16 -36 14 -56c-6 -58 -57 -121 -111 -111c-8 1 -9 10 -3 12c26 15 65 46 35 80c-14 11 -32 22 -27 54c8 47 65 60 92 21zM356 602c13 -17 16 -36 14 -56c-6 -58 -57 -121 -111 -111c-8 1 -9 10 -3 12c26 15 65 46 35 80c-14 11 -32 22 -27 54
c8 47 65 60 92 21z" />
    <glyph glyph-name="quoteleft" unicode="&#x2018;" horiz-adv-x="229" 
d="M108 457c-13 17 -16 36 -14 56c6 58 57 121 111 111c8 -1 9 -10 3 -12c-26 -15 -65 -46 -35 -80c14 -11 32 -22 27 -54c-8 -47 -65 -60 -92 -21z" />
    <glyph glyph-name="quoteright" unicode="&#x2019;" horiz-adv-x="234" 
d="M210 602c13 -17 16 -36 14 -56c-6 -58 -57 -121 -111 -111c-8 1 -9 10 -3 12c26 15 65 46 35 80c-14 11 -32 22 -27 54c8 47 65 60 92 21z" />
    <glyph glyph-name="quotesinglbase" unicode="&#x201a;" horiz-adv-x="199" 
d="M130 69c13 -17 16 -36 14 -56c-6 -58 -57 -121 -111 -111c-8 1 -9 10 -3 12c26 15 65 46 35 80c-14 11 -32 22 -27 54c8 47 65 60 92 21z" />
    <glyph glyph-name="quotesingle" unicode="'" horiz-adv-x="211" 
d="M212 602c13 -17 16 -36 14 -56c-6 -58 -57 -121 -111 -111c-8 1 -9 10 -3 12c26 15 65 46 35 80c-14 11 -32 22 -27 54c8 47 65 60 92 21z" />
    <glyph glyph-name="r" unicode="r" horiz-adv-x="371" 
d="M275 409c51 2 94 -44 94 -95c-2 -19 -75 -64 -94 -51c30 53 26 140 -43 88c-30 -23 -67 -68 -111 -175c-13 -57 -27 -118 -37 -175c-22 -9 -78 -15 -93 0c20 176 63 350 93 422c39 11 89 16 119 0c-10 -17 -20 -44 -35 -87c26 39 62 71 107 73z" />
    <glyph glyph-name="registered" unicode="&#xae;" horiz-adv-x="657" 
d="M451 254c4 2 6 2 9 0c-5 -40 -31 -83 -63 -83c-59 -2 -53 103 -53 147c-9 -6 -18 -7 -24 -9c-13 -55 -23 -98 -31 -135c-9 -3 -32 -7 -40 0c9 80 49 253 62 286c18 5 40 9 53 1c-6 -10 -24 -72 -37 -127c33 11 64 62 68 95c5 32 -22 54 -53 54c-36 0 -78 -36 -78 -131
c-6 -9 -42 24 -38 37c12 71 67 105 118 111c53 5 103 -20 98 -69c-5 -46 -38 -79 -69 -99c7 -1 13 -3 14 -9c0 -20 -7 -122 13 -132c22 -11 49 45 51 63zM524 520c47 -48 76 -111 76 -184c0 -71 -29 -136 -76 -182c-46 -47 -111 -76 -182 -76c-73 0 -136 29 -184 76
c-47 46 -76 111 -76 182c0 73 29 136 76 184c48 47 111 76 184 76c71 0 136 -29 182 -76zM506 172c41 42 69 100 69 164c0 65 -28 122 -69 164c-42 43 -100 69 -164 69c-65 0 -122 -26 -164 -69c-41 -42 -69 -99 -69 -164c0 -64 28 -122 69 -164c42 -41 99 -67 164 -67
c64 0 122 26 164 67z" />
    <glyph glyph-name="s" unicode="s" horiz-adv-x="321" 
d="M217 313c60 -30 90 49 15 60c-56 9 -73 -20 -73 -51c0 -37 57 -82 84 -114c95 -103 53 -218 -96 -218c-187 -1 -191 191 -105 218c20 8 86 -24 70 -35c-77 -4 -86 -143 18 -143c75 0 78 90 37 136c-44 49 -113 84 -108 151c2 65 75 112 169 92c124 -25 109 -163 -11 -135
c-12 3 -17 42 0 39z" />
    <glyph glyph-name="sacute" unicode="&#x15b;" horiz-adv-x="331" 
d="M217 313c60 -30 90 49 15 60c-56 9 -73 -20 -73 -51c0 -37 57 -82 84 -114c95 -103 53 -218 -96 -218c-187 -1 -191 191 -105 218c20 8 86 -24 70 -35c-77 -4 -86 -143 18 -143c75 0 78 90 37 136c-44 49 -113 84 -108 151c2 65 75 112 169 92c124 -25 109 -163 -11 -135
c-12 3 -17 42 0 39zM216 466c-17 -8 -47 -9 -67 0c17 53 33 107 50 161c34 10 66 13 92 1z" />
    <glyph glyph-name="scaron" unicode="&#x161;" horiz-adv-x="322" 
d="M217 313c60 -30 90 49 15 60c-56 9 -73 -20 -73 -51c0 -37 57 -82 84 -114c95 -103 53 -218 -96 -218c-187 -1 -191 191 -105 218c20 8 86 -24 70 -35c-77 -4 -86 -143 18 -143c75 0 78 90 37 136c-44 49 -113 84 -108 151c2 65 75 112 169 92c124 -25 109 -163 -11 -135
c-12 3 -17 42 0 39zM173 474c-27 53 -56 106 -82 159c6 8 22 7 33 0l66 -111l115 110c21 7 49 8 61 0c-49 -53 -98 -106 -146 -159c-9 -12 -26 -9 -47 1z" />
    <glyph glyph-name="section" unicode="&#xa7;" horiz-adv-x="694" 
d="M584 605c83 -46 92 101 -12 113c-55 6 -105 -32 -112 -80c-16 -123 227 -191 186 -378c-15 -72 -80 -118 -154 -135v0c-48 -187 -437 -192 -380 45c9 43 39 82 86 101c16 5 75 -20 85 -47c-53 -3 -92 -41 -104 -80c-51 -158 194 -154 220 -17c32 154 -200 214 -190 356
c4 68 71 127 153 139c13 80 107 143 212 129c165 -22 166 -257 8 -212c-16 6 -19 72 2 66zM551 254c29 143 -165 206 -188 327c-30 -15 -52 -42 -56 -71c-15 -113 188 -180 191 -332v0c26 17 46 43 53 76z" />
    <glyph glyph-name="semicolon" unicode=";" horiz-adv-x="265" 
d="M149 234c-32 0 -57 22 -57 51c0 30 25 53 57 53c31 0 55 -23 55 -53c0 -29 -24 -51 -55 -51zM151 108c13 -17 16 -36 14 -56c-6 -58 -57 -121 -111 -111c-8 1 -9 10 -3 12c26 15 65 46 35 80c-14 11 -32 22 -27 54c8 47 65 60 92 21z" />
    <glyph glyph-name="seven" unicode="7" horiz-adv-x="551" 
d="M85 752c138 -25 334 -32 488 0c-142 -223 -305 -520 -402 -747c-24 -8 -106 -15 -115 0c80 221 206 447 323 654c-86 -18 -207 -28 -250 -18c-48 14 -69 111 -44 111z" />
    <glyph glyph-name="six" unicode="6" horiz-adv-x="604" 
d="M553 397c98 -140 -2 -410 -254 -401c-488 16 -238 851 255 746c23 -5 28 -35 19 -45c-156 40 -300 -78 -357 -219c173 47 287 -8 337 -81zM305 39c146 0 202 193 134 303c-48 79 -146 97 -249 77c-59 -143 -31 -380 115 -380z" />
    <glyph glyph-name="slash" unicode="/" horiz-adv-x="257" 
d="M76 -247c-16 -2 -35 -3 -51 0c70 333 139 664 210 996c21 6 37 3 52 0c-71 -332 -141 -663 -211 -996v0z" />
    <glyph glyph-name="space" unicode=" " horiz-adv-x="215" 
 />
    <glyph glyph-name="sterling" unicode="&#xa3;" horiz-adv-x="648" 
d="M545 105c48 -12 71 -110 45 -111c-139 27 -337 33 -491 0c59 108 115 248 159 393c-8 2 -15 2 -24 2c-23 0 -43 -7 -59 -24c-2 -1 -8 0 -6 2c14 29 35 51 60 68c15 8 32 14 48 18c30 100 54 202 70 291c25 8 98 14 108 0c-18 -94 -41 -197 -69 -299c4 -1 9 -2 12 -3
c12 -4 23 -7 34 -10c9 -2 21 -5 36 -5c11 0 22 3 32 5c11 4 18 9 24 16c1 1 7 1 5 0c-3 -11 -7 -22 -17 -34c-8 -10 -19 -20 -35 -28c-13 -8 -27 -17 -43 -22c-17 -5 -32 -8 -49 -8c-8 0 -15 1 -23 2c-31 -97 -64 -193 -104 -275c87 15 244 33 287 22z" />
    <glyph glyph-name="t" unicode="t" horiz-adv-x="210" 
d="M237 180c10 4 16 3 24 1c-14 -99 -65 -186 -146 -186c-46 -1 -73 18 -87 49c-28 58 -12 199 14 326h-42c-7 8 2 38 11 40h40c17 77 38 146 54 183c39 10 88 17 120 1c-18 -28 -44 -101 -67 -184h58c13 -11 -2 -37 -7 -40h-62c-30 -115 -52 -239 -43 -290
c4 -22 13 -37 27 -44c49 -25 106 99 106 144z" />
    <glyph glyph-name="three" unicode="3" horiz-adv-x="597" 
d="M426 386c261 -65 166 -392 -156 -392c-221 0 -320 242 -151 320c57 19 151 -38 129 -53c-176 -8 -125 -225 25 -225c216 0 251 310 -29 329c-13 11 -9 29 0 35c176 0 285 303 94 306c-63 2 -133 -48 -131 -121c1 -42 32 -81 94 -85c-22 -28 -102 -53 -119 -49
c-48 20 -68 61 -65 105c11 118 133 192 249 192c236 -1 249 -260 60 -362z" />
    <glyph glyph-name="threesuperior" unicode="&#xb3;" horiz-adv-x="280" 
d="M220 608c102 -26 65 -156 -64 -156c-87 0 -127 96 -59 127c22 9 59 -14 50 -21c-70 -3 -50 -88 10 -88c87 0 102 122 -12 130c-3 6 -3 13 0 15c72 0 116 121 39 122c-26 0 -55 -21 -54 -49c2 -15 14 -32 38 -33c-9 -10 -40 -21 -46 -20c-19 9 -28 23 -27 42
c5 48 53 76 100 76c94 -1 98 -104 25 -145z" />
    <glyph glyph-name="two" unicode="2" horiz-adv-x="595" 
d="M200 409v0c-49 22 -70 71 -66 122c12 148 130 218 244 220c115 1 224 -72 192 -214c-40 -185 -285 -443 -382 -504c163 3 278 42 354 94c34 -29 3 -133 -46 -133h-457c13 24 24 36 46 55c143 118 321 337 361 488c27 106 -34 172 -100 173c-62 0 -125 -54 -122 -146
c2 -46 33 -93 94 -97c-22 -34 -103 -64 -118 -58z" />
    <glyph glyph-name="twosuperior" unicode="&#xb2;" horiz-adv-x="306" 
d="M287 668c-18 -72 -114 -176 -154 -200c67 1 110 17 141 35c15 -9 3 -51 -18 -51h-181c6 9 10 15 18 22c56 46 129 133 142 194c13 41 -11 67 -38 67c-24 1 -51 -21 -50 -56c2 -19 14 -39 39 -40c-10 -12 -42 -25 -49 -23c-16 9 -24 28 -23 50c4 58 51 86 96 86
c44 1 89 -28 77 -84z" />
    <glyph glyph-name="u" unicode="u" horiz-adv-x="421" 
d="M445 190c9 6 15 5 24 3c-13 -99 -71 -198 -151 -199c-46 0 -73 19 -88 51c-5 9 -8 23 -9 41c-26 -53 -66 -92 -119 -92c-46 0 -73 19 -87 51c-26 52 -12 205 27 355c26 9 90 16 113 -2c-44 -130 -73 -271 -64 -318c4 -20 12 -37 26 -44c40 -21 85 58 101 112
c6 69 17 162 40 252c26 9 91 16 113 -2c-43 -130 -73 -271 -63 -318c3 -20 11 -37 25 -44c50 -26 111 110 112 154z" />
    <glyph glyph-name="uacute" unicode="&#xfa;" horiz-adv-x="421" 
d="M452 190c9 6 15 5 24 3c-13 -99 -71 -198 -151 -199c-46 0 -73 19 -88 51c-5 9 -8 23 -9 41c-26 -53 -66 -92 -119 -92c-46 0 -73 19 -87 51c-26 52 -12 205 27 355c26 9 90 16 113 -2c-44 -130 -73 -271 -64 -318c4 -20 12 -37 26 -44c40 -21 85 58 101 112
c6 69 17 162 40 252c26 9 91 16 113 -2c-43 -130 -73 -271 -63 -318c3 -20 11 -37 25 -44c50 -26 111 110 112 154zM247 466c-17 -8 -47 -9 -67 0c17 53 33 107 50 161c34 10 66 13 92 1z" />
    <glyph glyph-name="udieresis" unicode="&#xfc;" horiz-adv-x="420" 
d="M448 190c9 6 15 5 24 3c-13 -99 -71 -198 -151 -199c-46 0 -73 19 -88 51c-5 9 -8 23 -9 41c-26 -53 -66 -92 -119 -92c-46 0 -73 19 -87 51c-26 52 -12 205 27 355c26 9 90 16 113 -2c-44 -130 -73 -271 -64 -318c4 -20 12 -37 26 -44c40 -21 85 58 101 112
c6 69 17 162 40 252c26 9 91 16 113 -2c-43 -130 -73 -271 -63 -318c3 -20 11 -37 25 -44c50 -26 111 110 112 154zM143 460c-32 0 -57 22 -57 51c0 30 25 53 57 53c31 0 55 -23 55 -53c0 -29 -24 -51 -55 -51zM281 460c-32 0 -57 22 -57 51c0 30 25 53 57 53
c31 0 55 -23 55 -53c0 -29 -24 -51 -55 -51z" />
    <glyph glyph-name="uhungarumlaut" unicode="&#x171;" horiz-adv-x="422" 
d="M448 190c9 6 15 5 24 3c-13 -99 -71 -198 -151 -199c-46 0 -73 19 -88 51c-5 9 -8 23 -9 41c-26 -53 -66 -92 -119 -92c-46 0 -73 19 -87 51c-26 52 -12 205 27 355c26 9 90 16 113 -2c-44 -130 -73 -271 -64 -318c4 -20 12 -37 26 -44c40 -21 85 58 101 112
c6 69 17 162 40 252c26 9 91 16 113 -2c-43 -130 -73 -271 -63 -318c3 -20 11 -37 25 -44c50 -26 111 110 112 154zM290 466c-17 -8 -47 -9 -67 0c17 53 33 107 50 161c34 10 66 13 92 1zM172 466c-17 -8 -47 -9 -67 0c17 53 33 107 50 161c34 10 66 13 92 1z" />
    <glyph glyph-name="underscore" unicode="_" horiz-adv-x="491" 
d="M415 0h-341c-6 25 4 58 12 73h341c5 -25 -1 -53 -12 -73z" />
    <glyph glyph-name="v" unicode="v" horiz-adv-x="423" 
d="M462 292c7 -1 5 -24 0 -26c-31 -13 -67 -21 -93 -19c-27 -116 -149 -254 -266 -253c-170 -1 -81 305 -54 405c28 10 104 18 125 -1c-29 -82 -94 -256 -66 -340c3 -10 7 -17 14 -21c56 -34 192 154 198 214c-43 8 -87 29 -104 77c-22 67 21 122 72 123
c52 2 105 -49 85 -174c16 -5 59 0 89 15zM330 288c17 97 -9 136 -37 134c-22 -1 -38 -26 -27 -64c6 -30 33 -59 64 -70z" />
    <glyph glyph-name="w" unicode="w" horiz-adv-x="636" 
d="M682 291c5 -1 3 -24 0 -24c-32 -15 -67 -22 -95 -21c-26 -114 -149 -253 -266 -252c-43 0 -69 20 -83 51c-41 -31 -89 -52 -137 -51c-113 -1 -106 138 -96 219c6 54 27 127 44 186c25 10 102 17 123 -1c-20 -58 -46 -128 -57 -180c-18 -81 -18 -132 -9 -161
c3 -10 8 -16 14 -20c26 -16 67 11 105 51c-7 41 -2 89 1 126c8 54 26 126 44 185c26 10 102 17 123 -1c-20 -58 -46 -128 -58 -180c-17 -81 -18 -132 -8 -161c3 -10 8 -16 14 -20c56 -34 191 153 198 214c-43 7 -88 28 -103 77c-22 66 20 120 70 122c53 2 106 -48 86 -173
c15 -6 58 -1 90 14zM548 288c19 96 -8 135 -37 134c-21 -1 -38 -26 -27 -66c7 -28 33 -57 64 -68z" />
    <glyph glyph-name="x" unicode="x" horiz-adv-x="480" 
d="M507 181c9 5 17 4 26 2c-12 -92 -72 -189 -162 -189c-58 0 -100 53 -127 96c-57 -50 -123 -87 -192 -96c-2 4 5 33 17 36c56 16 108 54 152 101c-25 50 -87 211 -138 211c-69 0 -29 -159 -10 -208c1 -5 3 -10 4 -12c3 -11 -16 -29 -22 -26c-2 5 -6 11 -7 18
c-45 108 -98 295 61 295c100 0 147 -120 174 -194c42 68 67 158 59 208c33 15 96 12 109 0c-19 -76 -74 -187 -143 -269c12 -33 37 -121 89 -121c53 0 112 106 110 148z" />
    <glyph glyph-name="y" unicode="y" horiz-adv-x="404" 
d="M471 -67c8 -6 -16 -26 -21 -26c-58 20 -122 32 -180 28c-6 -19 -8 -31 -18 -66c-24 -62 -56 -109 -130 -118c-160 -17 -163 204 53 228l10 42c-21 -17 -45 -28 -73 -28c-49 0 -78 22 -94 55c-28 57 -23 193 19 354c29 11 97 17 121 0c-45 -142 -67 -264 -57 -313
c3 -23 13 -41 30 -50c21 -10 49 9 71 42c28 118 49 209 78 321c42 12 95 16 129 0c-43 -117 -95 -302 -126 -423c80 -3 136 -23 188 -46zM65 -195c44 -39 89 87 99 122c-107 -22 -129 -101 -99 -122z" />
    <glyph glyph-name="yacute" unicode="&#xfd;" horiz-adv-x="428" 
d="M486 -67c8 -6 -16 -26 -21 -26c-58 20 -122 32 -180 28c-6 -19 -8 -31 -18 -66c-24 -62 -56 -109 -130 -118c-160 -17 -163 204 53 228l10 42c-21 -17 -45 -28 -73 -28c-49 0 -78 22 -94 55c-28 57 -21 200 21 361c29 12 97 18 121 0c-45 -142 -69 -271 -59 -320
c3 -23 13 -41 30 -50c21 -10 49 9 71 42c28 118 51 216 80 328c42 12 95 16 129 0c-43 -117 -97 -309 -128 -430c80 -3 136 -23 188 -46zM80 -195c44 -39 89 87 99 122c-107 -22 -129 -101 -99 -122zM275 466c-17 -8 -47 -9 -67 0c17 53 33 107 50 161c34 10 66 13 92 1z
" />
    <glyph glyph-name="ydieresis" unicode="&#xff;" horiz-adv-x="421" 
d="M492 -67c8 -6 -16 -26 -21 -26c-58 20 -122 32 -180 28c-6 -19 -8 -31 -18 -66c-24 -62 -56 -109 -130 -118c-160 -17 -163 204 53 228l10 42c-21 -17 -45 -28 -73 -28c-49 0 -78 22 -94 55c-28 57 -23 193 19 354c29 11 97 17 121 0c-45 -142 -67 -264 -57 -313
c3 -23 13 -41 30 -50c21 -10 49 9 71 42c28 118 49 209 78 321c42 12 95 16 129 0c-43 -117 -95 -302 -126 -423c80 -3 136 -23 188 -46zM86 -195c44 -39 89 87 99 122c-107 -22 -129 -101 -99 -122zM186 460c-32 0 -57 22 -57 51c0 30 25 53 57 53c31 0 55 -23 55 -53
c0 -29 -24 -51 -55 -51zM324 460c-32 0 -57 22 -57 51c0 30 25 53 57 53c31 0 55 -23 55 -53c0 -29 -24 -51 -55 -51z" />
    <glyph glyph-name="yen" unicode="&#xa5;" horiz-adv-x="581" 
d="M378 188c-1 -9 -4 -17 -5 -22c0 -1 0 -2 -1 -3c38 1 74 2 102 4c0 -12 -2 -24 -9 -35h-100c-5 -17 -9 -34 -15 -51c-14 -46 -44 -80 -94 -86c-29 -3 -50 5 -63 20c-30 30 -25 90 26 126c17 0 24 -19 21 -30c-35 -26 -41 -65 -27 -77c32 -26 61 48 72 95c0 1 1 2 1 3h-41
c3 9 4 18 4 25c13 1 27 2 42 2c2 10 5 19 7 29h-46c4 8 5 17 5 26c14 0 29 1 46 2c4 20 9 41 13 62c-3 -4 -7 -7 -11 -10c-87 -101 -196 -91 -207 56c-11 149 33 361 50 420c22 8 81 13 100 -1c-19 -48 -76 -272 -78 -413c-2 -112 49 -125 123 -40c10 11 24 28 34 45
c29 159 58 331 79 409c28 9 71 12 95 0c-24 -53 -88 -384 -117 -526c36 2 70 3 97 4c1 -11 -2 -23 -8 -34h-95z" />
    <glyph glyph-name="z" unicode="z" horiz-adv-x="415" 
d="M439 192c8 6 14 5 22 2c-46 -291 -291 -170 -461 -200c7 15 11 33 26 40c88 47 191 205 243 328h-96c-3 -43 -18 -92 -57 -117c-54 -34 -102 -1 -106 47c-3 43 7 74 34 92c23 16 58 23 104 25c5 15 -3 56 -17 85c0 6 20 8 21 4c13 -29 21 -62 22 -89h209
c-36 -144 -133 -287 -257 -368c119 23 291 -23 313 151zM90 288c23 14 45 43 50 74c-80 2 -109 -31 -106 -58c2 -23 22 -34 56 -16z" />
    <glyph glyph-name="zcaron" unicode="&#x17e;" horiz-adv-x="433" 
d="M458 192c8 6 14 5 22 2c-46 -291 -291 -170 -461 -200c7 15 11 33 26 40c88 47 191 205 243 328h-96c-3 -43 -18 -92 -57 -117c-54 -34 -102 -1 -106 47c-3 43 7 74 34 92c23 16 58 23 104 25c5 15 -3 56 -17 85c0 6 20 8 21 4c13 -29 21 -62 22 -89h209
c-36 -144 -133 -287 -257 -368c119 23 291 -23 313 151zM109 288c23 14 45 43 50 74c-80 2 -109 -31 -106 -58c2 -23 22 -34 56 -16zM245 474c-27 53 -56 106 -82 159c6 8 22 7 33 0l66 -111l115 110c21 7 49 8 61 0c-49 -53 -98 -106 -146 -159c-9 -12 -26 -9 -47 1z" />
    <glyph glyph-name="zero" unicode="0" horiz-adv-x="649" 
d="M351 751c160 3 317 -154 279 -414c-35 -240 -172 -347 -303 -343c-159 3 -309 163 -271 417c35 235 167 339 295 340zM508 337c32 229 -12 352 -90 370c-99 21 -228 -111 -254 -297c-35 -248 36 -371 124 -374c94 -3 196 129 220 301z" />
    <glyph glyph-name="A" unicode="A" horiz-adv-x="692" 
d="M301 167c-61 -13 -99 -42 -116 -69c-47 -75 37 -111 116 69zM721 185c9 6 15 6 23 3c-13 -103 -70 -193 -152 -194c-46 -1 -74 23 -89 56c-12 24 -14 66 -10 121c-35 6 -104 5 -124 2c-35 -63 -81 -154 -155 -175c-22 -6 -46 -6 -71 1c-48 13 -59 61 -35 105
c27 49 99 100 214 112c69 143 172 374 243 518c20 11 57 17 94 18c34 0 66 -5 82 -16c-24 -60 -216 -641 -133 -694c47 -32 111 95 113 143zM590 624c-50 -103 -180 -362 -203 -410c24 -1 85 -1 110 -5c8 78 72 327 93 415z" />
    <glyph glyph-name="asciicircum" unicode="^" horiz-adv-x="273" 
d="M222 709l-92 -88c-16 -5 -38 -6 -48 0c39 44 77 85 117 127c7 10 20 8 37 0c22 -42 44 -85 66 -127c-5 -7 -18 -6 -27 0z" />
    <glyph glyph-name="Yacute" unicode="&#xdd;" horiz-adv-x="592" 
d="M544 742c38 11 91 15 121 0c-35 -79 -139 -635 -161 -733c-7 -36 -17 -72 -30 -107c-19 -57 -55 -102 -119 -109c-115 -12 -139 121 -47 186c22 0 31 -27 27 -40c-45 -32 -51 -81 -35 -95c40 -34 77 60 91 118c15 64 29 128 40 191c-3 -5 -9 -10 -12 -14
c-113 -128 -251 -115 -265 71c-13 188 44 456 63 532c29 10 103 17 128 -1c-26 -60 -95 -345 -99 -522c-2 -143 61 -159 156 -51c14 14 30 36 43 57c39 202 74 417 99 517zM492 841c-17 -8 -47 -9 -67 0c17 53 33 107 50 161c34 10 66 13 92 1z" />
    <glyph glyph-name="asciitilde" unicode="~" horiz-adv-x="539" 
d="M482 296c-3 -10 -8 -20 -17 -31c-10 -10 -21 -19 -34 -27c-14 -8 -29 -15 -45 -20c-17 -5 -33 -8 -50 -8c-14 0 -29 2 -42 5s-26 6 -38 11s-24 8 -36 11s-24 5 -36 5c-24 0 -44 -8 -61 -23c0 0 -6 1 -5 2c15 28 35 48 61 63c26 14 56 20 90 20c17 0 31 -1 44 -4
c14 -3 26 -6 37 -9c11 -4 23 -7 33 -10c11 -3 23 -5 37 -5c11 0 22 2 32 6c10 3 18 7 25 14c1 1 5 1 5 0z" />
    <glyph glyph-name="at" unicode="@" horiz-adv-x="685" 
d="M613 374c69 -125 -11 -337 -130 -338c-37 -2 -57 12 -69 36c-1 3 -3 7 -4 13c-24 -27 -59 -46 -90 -48c-105 -13 -102 113 -91 167c12 53 39 106 75 131c18 10 40 20 62 20c20 0 46 -5 67 -17l2 7c20 10 72 13 87 -2c-33 -99 -57 -209 -50 -243c4 -12 6 -30 22 -30
c57 -7 115 158 74 267c-73 175 -378 87 -408 -142c-17 -136 66 -246 190 -229c4 0 -3 -29 -17 -31c-131 -16 -256 101 -237 254c39 259 411 380 517 185zM403 124c-1 47 8 119 26 188c-17 7 -37 -2 -55 -12c-29 -20 -54 -58 -67 -103c-5 -19 -28 -133 22 -133
c24 0 56 28 74 60z" />
    <glyph glyph-name="A.2" unicode="&#xe003;" 
d="M1209 -110c18 -29 23 -74 -22 -98c-136 -77 -354 -87 -496 -19c-146 71 -184 205 -174 356c-37 7 -110 6 -133 3c-37 -70 -87 -166 -167 -188c-23 -7 -49 -7 -76 0c-51 14 -63 65 -37 111c29 53 107 109 229 121c74 155 186 401 260 556c42 22 154 29 190 2
c-66 -196 -289 -768 -62 -912c127 -80 380 -21 488 68zM186 50c-48 -78 41 -119 125 75c-66 -14 -107 -45 -125 -75zM521 168c12 82 61 339 100 447c-55 -110 -194 -389 -217 -440c25 -1 91 -1 117 -7z" />
    <glyph glyph-name="B.2" unicode="&#xe004;" horiz-adv-x="804" 
d="M852 277c10 -1 5 -23 -8 -27c-25 -6 -64 -16 -87 -23c-39 -284 -380 -288 -329 -124c27 83 156 117 214 133c35 133 -84 165 -180 107c-31 -125 -60 -259 -74 -340c-22 -9 -80 -16 -93 0c20 180 111 579 141 653c39 12 89 17 122 1c-17 -24 -47 -127 -78 -246
c151 63 249 284 51 297c-303 20 -407 -336 -245 -556c-20 -18 -97 -12 -119 9c-156 296 47 599 373 589c245 -8 231 -246 72 -325c93 -3 150 -68 147 -169c28 4 68 16 93 21zM505 100c-32 -92 81 -103 127 95c-73 -26 -117 -66 -127 -95z" />
    <glyph glyph-name="D.2" unicode="&#xe005;" horiz-adv-x="757" 
d="M540 751c370 -13 243 -546 29 -700c-78 -57 -219 -64 -268 -51c2 14 4 33 5 47c21 138 81 496 129 612c38 11 87 17 118 2c-43 -85 -133 -503 -157 -624c240 6 397 656 135 672c-303 19 -407 -337 -245 -557c-20 -18 -96 -12 -119 10c-156 295 47 600 373 589z" />
    <glyph glyph-name="E.2" unicode="&#xe006;" horiz-adv-x="504" 
d="M841 -112c16 -29 21 -74 -23 -99c-94 -52 -230 -67 -350 -57c-401 31 -451 504 -148 642c-76 60 -92 123 -75 198c-28 10 -64 22 -85 32c-4 0 12 35 23 29c23 -6 49 -15 76 -24c48 113 142 143 217 143c238 0 129 -272 -127 -209c-12 -50 11 -132 126 -164
c5 -1 3 -4 0 -5c-240 -40 -353 -542 -16 -586c130 -17 297 31 382 100zM491 707c-46 0 -100 -58 -125 -120c168 -18 208 120 125 120z" />
    <glyph glyph-name="F.2" unicode="&#xe007;" horiz-adv-x="660" 
d="M861 748c1 0 0 -2 0 -3c-13 -46 -31 -79 -43 -104c-5 -12 -15 -15 -28 -12c-142 27 -291 111 -445 33c-178 -91 -155 -373 -54 -510c-21 -18 -96 -12 -120 10c-96 183 -62 413 119 526c178 111 376 39 571 60zM484 373c64 8 128 18 156 30c13 -7 -10 -84 -18 -83
c-22 -5 -87 -7 -151 -6c-28 -118 -53 -236 -66 -311c-21 -8 -77 -15 -91 0c9 78 29 195 53 312c-25 2 -46 3 -58 6h-2v42c13 0 38 0 69 2c28 132 57 253 72 289c39 11 88 17 119 2c-17 -27 -51 -147 -83 -283z" />
    <glyph glyph-name="G.2" unicode="&#xe008;" horiz-adv-x="625" 
d="M1071 -49c10 -32 5 -56 -23 -71c-160 -79 -409 -62 -573 0c-25 -73 -29 -141 -120 -141c-43 0 -72 20 -88 52c-26 58 0 183 131 153c6 27 15 54 22 82c-27 -19 -61 -32 -102 -32c-352 0 -113 758 201 758c104 0 156 -49 133 -156c-4 -21 -12 -44 -25 -70
c-7 -25 -92 -51 -122 -25c94 88 99 211 53 211c-180 0 -458 -668 -222 -675c46 -1 78 29 101 64c19 83 39 167 61 255c39 11 86 16 118 1c-53 -118 -95 -305 -127 -435c173 -49 418 -50 582 29zM346 -205c22 28 38 79 44 110c-88 23 -101 -64 -90 -95c8 -22 29 -34 46 -15z
" />
    <glyph glyph-name="H.2" unicode="&#xe009;" horiz-adv-x="819" 
d="M1308 -51c17 -27 21 -69 -20 -91c-207 -116 -585 -80 -621 208c-10 77 1 163 15 243c-25 -6 -108 -7 -190 -6c-29 -116 -54 -231 -65 -299c-22 -10 -77 -16 -91 0c9 70 30 186 56 301c-33 1 -59 3 -90 6v42c16 -1 53 0 100 2c26 119 57 219 83 334
c-243 -41 -311 -336 -164 -537c-20 -18 -97 -11 -119 11c-144 272 17 546 299 583c42 6 84 6 126 5c-57 -129 -84 -247 -120 -389c79 6 158 16 190 29c31 147 73 297 94 349c37 11 86 17 118 2c-58 -150 -147 -437 -149 -637c-3 -337 375 -297 548 -156z" />
    <glyph glyph-name="I.2" unicode="&#xe00a;" horiz-adv-x="504" 
d="M471 747c43 5 85 6 127 5c-78 -178 -164 -545 -200 -749c-21 -9 -77 -15 -91 0c34 252 97 450 148 687c-242 -41 -311 -338 -164 -538c-20 -17 -96 -12 -119 10c-144 274 17 547 299 585z" />
    <glyph glyph-name="J.2" unicode="&#xe00b;" horiz-adv-x="500" 
d="M956 -51c10 -30 4 -55 -23 -68c-159 -81 -408 -63 -571 0c-24 -74 -29 -142 -119 -142c-42 0 -73 20 -88 52c-23 55 4 181 130 151c3 10 6 20 10 34c59 241 116 470 170 712c-148 -24 -233 -136 -241 -280c-6 -89 18 -182 74 -260c-20 -17 -97 -10 -120 12
c-51 98 -64 196 -45 282c48 227 259 313 468 309c-83 -244 -155 -569 -225 -830c174 -48 417 -50 580 28zM232 -204c25 27 40 78 45 108c-87 23 -100 -64 -89 -94c8 -23 29 -34 44 -14z" />
    <glyph glyph-name="K.2" unicode="&#xe00c;" horiz-adv-x="680" 
d="M1182 -53c15 -26 21 -68 -20 -92c-128 -71 -332 -80 -464 -16c-192 93 -168 308 -168 488c-23 -22 -44 -37 -59 -42c-27 -110 -50 -220 -60 -282c-22 -9 -77 -16 -91 0c26 237 94 454 148 686c-239 -57 -277 -357 -144 -538c-19 -18 -97 -11 -119 11
c-171 324 70 597 406 590c-53 -130 -84 -243 -118 -380c86 86 186 285 237 365c11 11 92 25 103 0c-41 -75 -155 -243 -250 -353c17 -6 35 -15 39 -28c-4 -129 -27 -401 104 -471c119 -75 353 -22 456 62z" />
    <glyph glyph-name="L.2" unicode="&#xe00d;" horiz-adv-x="458" 
d="M1181 -68c17 -24 1 -92 -22 -103c-211 -101 -657 45 -830 121c-24 -82 -49 -140 -124 -140c-41 0 -70 20 -86 54c-28 58 -9 186 134 157c61 246 104 413 164 662c-149 -18 -168 -186 -168 -309c-11 -22 -100 61 -94 90c43 215 198 292 397 289
c-75 -210 -139 -518 -207 -755c206 -60 619 -159 836 -66zM196 -131c24 31 34 72 45 111c-89 19 -97 -69 -87 -96c8 -22 27 -35 42 -15z" />
    <glyph glyph-name="M.2" unicode="&#xe00e;" horiz-adv-x="1085" 
d="M1570 -52c17 -27 21 -69 -20 -92c-127 -71 -333 -84 -463 -16c-262 137 -121 535 -76 742c-62 -130 -231 -452 -288 -572c-7 -16 -83 -25 -91 -5c31 148 89 480 116 614c-85 -164 -220 -622 -436 -626c-208 -3 -247 506 64 663c31 6 98 -34 104 -60
c-265 -88 -336 -559 -160 -559c125 0 306 517 389 696c43 25 153 22 187 2c-16 -37 -99 -293 -134 -483c71 158 189 400 233 489c40 15 151 13 177 -6c-39 -96 -276 -707 -57 -850c119 -75 354 -21 455 63z" />
    <glyph glyph-name="N.2" unicode="&#xe00f;" horiz-adv-x="798" 
d="M826 179c8 4 15 4 22 2c-13 -97 -63 -187 -141 -187c-194 -1 -35 483 -10 581c-61 -129 -231 -446 -287 -565c-7 -16 -84 -25 -91 -4c21 101 56 299 83 448c16 82 29 152 46 234c-222 -56 -283 -343 -141 -536c-20 -17 -97 -12 -119 10c-139 264 5 526 269 579
c43 8 84 10 129 10c-55 -136 -104 -360 -137 -502c70 155 189 395 233 483c40 30 168 22 177 -6c-39 -61 -236 -680 -131 -689c39 -4 96 84 98 142z" />
    <glyph glyph-name="P.2" unicode="&#xe010;" horiz-adv-x="701" 
d="M524 751c154 6 309 -46 267 -238c-29 -130 -150 -262 -325 -259c-33 -125 -40 -168 -55 -250c-23 -9 -81 -15 -95 0c20 180 113 578 145 651c40 12 92 18 124 2c-16 -25 -75 -237 -108 -358c92 -1 164 107 191 213c40 156 -23 200 -147 198c-257 -2 -385 -334 -221 -557
c-20 -17 -97 -12 -120 10c-145 288 22 577 344 588z" />
    <glyph glyph-name="Q.2" unicode="&#xe011;" 
d="M1327 -20c16 -27 31 -66 -11 -97c-243 -182 -591 -20 -794 151c-178 -124 -436 45 -388 377c23 168 115 335 281 340c53 2 125 -22 174 -61c4 -14 -7 -42 -16 -45c-22 21 -84 66 -126 63c-120 -6 -194 -189 -208 -299c-41 -311 104 -459 224 -319c-40 40 -71 46 -113 7
l-20 25c59 60 114 47 164 2c35 47 67 114 90 209c9 53 15 96 15 129c-34 -6 -73 -4 -104 20c-108 88 61 257 166 29c19 7 44 25 61 46c5 1 13 -16 9 -20c-16 -21 -39 -38 -60 -49c17 -50 23 -112 12 -186c-19 -114 -78 -204 -114 -237c185 -162 558 -290 758 -85zM524 524
c17 -15 47 -27 74 -26c-4 27 -11 48 -24 68c-21 21 -47 28 -62 19c-18 -9 -16 -36 12 -61z" />
    <glyph glyph-name="R.2" unicode="&#xe012;" horiz-adv-x="746" 
d="M770 173c9 5 14 4 22 2c-13 -93 -63 -179 -142 -181c-132 0 -119 241 -117 338c-21 -10 -41 -17 -55 -20c-31 -126 -55 -225 -70 -308c-21 -10 -78 -16 -92 0c20 181 111 580 142 654c39 11 89 18 121 2c-17 -25 -55 -168 -85 -288c73 21 146 138 155 215
c12 85 -53 119 -126 123c-285 16 -374 -350 -221 -557c-20 -18 -97 -12 -120 10c-150 286 34 577 344 589c117 4 244 -34 230 -163c-12 -104 -86 -177 -158 -223c16 -3 30 -8 34 -19c-3 -48 -15 -282 30 -306c47 -24 106 89 108 132z" />
    <glyph glyph-name="S.2" unicode="&#xe013;" horiz-adv-x="606" 
d="M1246 -26c17 -27 32 -64 -11 -96c-240 -181 -608 -32 -823 127c-27 -11 -58 -16 -91 -16c-153 0 -210 101 -166 156c31 40 109 63 254 -64c19 17 37 42 42 72c39 186 -233 260 -221 431c7 102 112 185 243 166c198 -26 165 -301 -26 -247c-18 7 -23 87 3 79
c100 -57 148 118 22 129c-66 6 -117 -38 -124 -95c-20 -148 268 -233 218 -458c-12 -52 -52 -97 -94 -125c203 -136 573 -256 774 -59zM317 35c15 1 33 10 46 18c-102 89 -161 81 -173 62c-20 -30 29 -96 127 -80z" />
    <glyph glyph-name="T.2" unicode="&#xe014;" horiz-adv-x="532" 
d="M878 748c2 0 1 -2 1 -3c-13 -45 -31 -78 -43 -105c-4 -12 -15 -15 -29 -12c-142 27 -291 111 -444 33c-180 -91 -157 -373 -55 -510c-20 -18 -97 -11 -120 11c-96 181 -63 412 119 526c178 111 376 39 571 60zM474 654c38 11 89 17 120 2c-33 -54 -132 -477 -162 -652
c-22 -12 -82 -14 -92 0c19 179 104 577 134 650z" />
    <glyph glyph-name="U.2" unicode="&#xe015;" horiz-adv-x="805" 
d="M1292 -52c17 -26 22 -69 -20 -92c-127 -71 -332 -82 -464 -16c-84 41 -163 158 -163 259c-4 -4 -21 -23 -25 -27c-116 -120 -254 -107 -268 74c-12 169 35 428 61 545c-198 -74 -250 -353 -113 -539c-20 -18 -98 -11 -121 11c-133 254 -4 511 243 577c33 8 111 23 141 7
c-26 -63 -107 -409 -111 -593c-3 -137 52 -157 153 -52c12 13 26 30 37 49c32 221 86 535 109 593c38 11 91 18 122 1c-28 -46 -105 -420 -125 -578c-12 -97 -3 -223 88 -282c119 -75 355 -20 456 63z" />
    <glyph glyph-name="V.2" unicode="&#xe016;" horiz-adv-x="773" 
d="M860 735c7 15 84 25 93 4c-94 -255 -234 -520 -382 -729c-17 -20 -129 -21 -139 0c32 69 128 564 77 674c-25 51 -112 13 -146 -12c-129 -98 -181 -351 -60 -516c-20 -18 -97 -10 -119 11c-110 208 -30 450 155 545c55 28 160 61 214 22c120 -90 44 -469 25 -574
c130 170 226 373 282 575z" />
    <glyph glyph-name="W.2" unicode="&#xe017;" horiz-adv-x="1095" 
d="M1175 734c7 15 84 25 92 5c-94 -257 -230 -523 -378 -732c-4 -15 -129 -18 -130 0c28 59 73 362 88 560c-76 -184 -165 -422 -263 -560c-5 -16 -125 -16 -133 0c37 79 134 588 74 683c-65 105 -445 -235 -221 -537c-21 -19 -98 -12 -120 10c-178 336 220 660 387 574
c127 -66 45 -479 27 -579c91 121 161 362 214 496c5 21 119 21 120 0c2 -146 -25 -439 -35 -496c129 170 221 374 278 576z" />
    <glyph glyph-name="X.2" unicode="&#xe018;" horiz-adv-x="907" 
d="M932 184c10 7 17 5 24 3c-12 -97 -68 -192 -156 -193c-95 0 -125 149 -144 221c-94 -117 -191 -211 -263 -221c-12 3 -12 47 0 50c67 21 158 132 241 258c-13 56 -26 111 -40 155c-17 51 -58 208 -121 242c-131 74 -355 -314 -184 -547c-20 -18 -97 -12 -120 10
c-118 228 67 624 329 588c135 -20 185 -237 210 -336c72 126 130 263 142 322c34 19 102 20 105 1c-18 -82 -113 -269 -223 -428c33 -154 57 -273 96 -273c52 0 106 104 104 148z" />
    <glyph glyph-name="a.2" unicode="&#xe019;" horiz-adv-x="386" 
d="M894 -40c17 -26 21 -70 -21 -94c-130 -72 -338 -55 -473 13c-73 36 -135 102 -156 182c-31 -34 -77 -62 -117 -66c-135 -15 -133 149 -118 219c16 71 51 140 98 169c24 17 50 26 80 26c26 1 59 -8 87 -22l3 13c26 9 91 16 112 -2c-51 -153 -127 -358 39 -472
c123 -78 362 -52 466 34zM237 109c-3 63 9 156 31 249c-22 5 -48 -4 -70 -19c-40 -26 -71 -76 -88 -131c-8 -28 -38 -175 28 -175c31 0 71 37 99 76z" />
    <glyph glyph-name="b.2" unicode="&#xe01a;" horiz-adv-x="409" 
d="M252 408c137 16 135 -150 119 -219c-19 -91 -75 -192 -179 -195c-32 -1 -76 11 -106 32c-2 -8 -3 -15 -4 -23c-17 -7 -53 -12 -76 -8c-7 2 -14 4 -18 8c30 184 74 390 114 531c-153 34 -279 45 -424 -27c-13 30 -3 68 44 82c130 41 261 23 393 -12c20 69 35 143 124 143
c43 0 73 -22 88 -53c28 -57 4 -182 -132 -153c-13 -48 -24 -94 -35 -142c26 19 65 33 92 36zM239 650c-9 -15 -20 -50 -35 -98c88 -24 102 65 90 97c-8 22 -29 33 -45 13c-5 -3 -8 -7 -10 -12zM269 195c8 28 37 177 -29 177c-28 0 -66 -29 -93 -64
c-23 -93 -41 -185 -54 -254c21 -20 56 -9 87 10c41 25 72 77 89 131z" />
    <glyph glyph-name="f.2" unicode="&#xe01b;" horiz-adv-x="250" 
d="M657 -39c10 -32 8 -71 -19 -86c-169 -92 -412 -49 -582 16c-25 -74 -30 -143 -122 -143c-42 0 -73 20 -88 52c-27 60 -2 189 132 153c32 138 62 281 93 418h-46c-6 9 3 37 11 39h44c19 66 41 187 79 242c12 16 29 34 55 44c10 5 20 8 29 11c42 9 90 7 131 -17
c45 -26 56 -70 18 -132c-8 -15 -85 -29 -100 -12c26 20 40 47 50 79c11 36 -11 54 -50 46c-22 -3 -38 -24 -46 -47c-24 -73 -41 -141 -61 -214h61c11 -10 -3 -35 -8 -39h-62c-37 -146 -69 -293 -105 -439c191 -53 404 -77 586 29zM-76 -195c23 27 39 80 45 109
c-88 24 -101 -64 -89 -95c8 -23 26 -34 44 -14z" />
    <glyph glyph-name="d.2" unicode="&#xe01c;" horiz-adv-x="436" 
d="M535 666c29 -57 5 -182 -132 -152c-26 -101 -90 -339 -77 -435c2 -20 10 -35 25 -43c50 -25 106 98 107 144c11 5 15 5 24 2c-13 -99 -65 -188 -146 -188c-45 -1 -71 19 -87 50c-2 5 -3 10 -4 17c-32 -36 -78 -62 -117 -67c-136 -14 -133 150 -118 221
c14 70 51 138 99 169c21 15 49 24 77 25c27 1 61 -7 90 -21c9 48 21 97 34 146c-152 34 -279 43 -423 -27c-13 30 -2 67 43 81c132 43 262 24 393 -11c21 68 36 142 124 142c44 0 73 -20 88 -53zM447 650c-8 -15 -21 -49 -34 -99c88 -23 102 65 90 98c-8 21 -30 33 -46 14
c-4 -4 -7 -9 -10 -13zM238 111c-2 64 13 155 32 248c-22 5 -48 -5 -72 -20c-39 -25 -70 -75 -87 -130c-8 -28 -37 -178 29 -178c30 0 71 39 98 80z" />
    <glyph glyph-name="g.2" unicode="&#xe01d;" horiz-adv-x="408" 
d="M854 -35c10 -33 8 -70 -20 -84c-165 -97 -404 -52 -574 13c-24 -74 -29 -144 -122 -144c-43 0 -72 21 -86 53c-28 61 -4 190 130 153c6 25 11 48 17 73c-19 -13 -41 -23 -62 -27c-130 -22 -149 114 -127 213c14 71 49 136 97 169c22 13 48 24 77 25c32 1 76 -13 105 -34
l6 22c38 14 88 17 118 0c-53 -137 -99 -316 -138 -462c202 -57 384 -77 579 30zM129 -193c24 27 38 81 45 110c-87 23 -102 -63 -90 -95c8 -22 28 -33 45 -15zM214 86c23 87 46 175 68 262c-22 19 -56 10 -87 -10c-39 -24 -69 -74 -86 -129c-7 -27 -37 -170 27 -170
c24 0 53 20 78 47z" />
    <glyph glyph-name="h.2" unicode="&#xe01e;" horiz-adv-x="410" 
d="M433 179c10 5 16 4 23 1c-12 -96 -62 -184 -139 -185c-50 0 -91 26 -97 85c-7 66 75 290 19 290c-32 0 -78 -67 -110 -130c-23 -95 -43 -180 -53 -236c-20 -11 -77 -14 -91 0c29 171 69 361 116 528c-151 33 -276 42 -420 -28c-13 30 -2 67 44 81c129 42 258 23 389 -12
c21 68 36 142 123 142c43 0 73 -20 88 -52c27 -58 5 -181 -132 -153c-13 -55 -27 -118 -43 -172c37 48 93 92 150 59c121 -70 -64 -307 31 -358c48 -26 101 95 102 140zM237 646c-8 -14 -20 -49 -33 -98c85 -22 100 65 88 97c-9 21 -28 33 -45 13c-4 -4 -8 -7 -10 -12z" />
    <glyph glyph-name="i.2" unicode="&#xe01f;" horiz-adv-x="205" 
d="M127 543c-32 0 -57 22 -57 51c0 30 25 53 57 53c31 0 55 -23 55 -53c0 -29 -24 -51 -55 -51zM230 191c9 5 14 5 23 2c-14 -99 -70 -198 -151 -199c-45 0 -72 19 -87 51c-25 51 -9 205 29 353c26 11 90 18 112 0c-43 -131 -73 -272 -65 -318c4 -21 12 -35 26 -43
c48 -26 112 108 113 154z" />
    <glyph glyph-name="t.2" unicode="&#xe020;" horiz-adv-x="217" 
d="M668 564c-122 -98 -312 -117 -498 -121c-38 -129 -75 -303 -62 -362c3 -21 11 -38 25 -44c49 -25 106 98 106 143c10 5 16 4 24 1c-13 -98 -64 -186 -145 -187c-45 0 -73 20 -87 50c-33 67 -4 256 31 398c-60 -1 -118 -2 -169 -2c-4 22 2 32 11 41c54 0 111 0 169 5
c12 49 24 82 35 107c38 10 88 17 120 1c-13 -20 -27 -53 -43 -103c178 10 356 39 488 147c18 -28 18 -54 -5 -74z" />
    <glyph glyph-name="j.2" unicode="&#xe021;" horiz-adv-x="196" 
d="M655 -32c10 -34 10 -74 -17 -88c-167 -98 -416 -49 -586 14c-25 -74 -32 -144 -125 -144c-42 0 -73 21 -89 54c-27 59 -2 193 133 153c36 153 72 289 111 440c39 13 86 19 120 0c-52 -136 -96 -310 -136 -461c199 -54 401 -80 589 32zM-83 -192c24 28 38 81 44 111
c-87 23 -101 -65 -89 -98c8 -21 29 -33 45 -13zM176 496c-33 0 -55 24 -55 52c0 30 22 55 55 55c30 0 57 -25 57 -55c0 -28 -27 -52 -57 -52z" />
    <glyph glyph-name="k.2" unicode="&#xe022;" horiz-adv-x="390" 
d="M413 187c10 6 16 5 24 3c-13 -103 -67 -195 -152 -195c-47 0 -75 20 -91 52c-13 27 -16 78 -11 143c-26 -21 -52 -37 -75 -43c-10 -48 -19 -95 -28 -143c-23 -9 -81 -15 -96 0c20 178 76 381 118 555c-159 34 -291 45 -442 -30c-14 32 -3 71 45 86c136 44 273 24 410 -12
c22 71 38 149 130 149c44 0 76 -23 92 -55c30 -61 5 -190 -138 -161c-27 -105 -58 -235 -81 -341c71 53 104 136 152 219c10 11 78 27 92 0c-30 -61 -77 -125 -129 -179c23 -5 46 -16 51 -32c-10 -53 -14 -96 -10 -119c3 -21 12 -37 27 -45c51 -27 110 101 112 148zM245 678
c-9 -14 -22 -51 -36 -102c92 -24 106 68 94 101c-9 23 -30 36 -48 15c-3 -4 -7 -8 -10 -14z" />
    <glyph glyph-name="l.2" unicode="&#xe023;" horiz-adv-x="201" 
d="M297 661c27 -57 3 -181 -131 -152c-21 -69 -102 -406 -71 -456c4 -7 12 -13 19 -16c49 -27 104 95 106 139c9 6 15 6 24 3c-14 -99 -65 -185 -145 -185c-31 0 -52 9 -68 24c-74 73 17 418 42 513c-150 31 -274 42 -417 -28c-15 29 -5 65 43 80c128 42 258 22 387 -12
c21 68 36 142 123 142c42 0 72 -21 88 -52zM241 665c-38 6 -60 -94 -66 -119c86 -23 100 65 88 96c-5 13 -14 23 -22 23z" />
    <glyph glyph-name="m.2" unicode="&#xe024;" horiz-adv-x="587" 
d="M1113 -61c17 -26 22 -70 -21 -94c-131 -72 -338 -76 -475 -16c-304 130 -67 522 -150 540c-35 8 -91 -87 -123 -155c-19 -83 -36 -167 -45 -217c-21 -8 -78 -14 -90 0c5 51 21 135 38 216c18 79 40 156 1 156c-40 0 -104 -106 -133 -176c-13 -64 -26 -131 -36 -196
c-23 -8 -79 -14 -93 0c21 175 44 354 75 426c38 11 86 16 119 0c-12 -20 -25 -60 -38 -112c36 60 97 126 167 85c36 -21 45 -60 41 -104c35 65 101 149 179 104c130 -73 -125 -368 116 -521c122 -77 363 -21 468 64z" />
    <glyph glyph-name="n.2" unicode="&#xe025;" horiz-adv-x="361" 
d="M886 -57c16 -27 21 -70 -22 -93c-129 -73 -335 -78 -472 -18c-311 135 -56 536 -146 536c-34 0 -87 -72 -119 -139c-18 -73 -33 -151 -46 -227c-22 -9 -79 -16 -92 0c21 174 51 348 81 421c38 11 88 16 119 0c-10 -16 -20 -42 -32 -79c37 50 90 86 151 50
c122 -69 -126 -364 111 -514c122 -77 364 -22 467 63z" />
    <glyph glyph-name="p.2" unicode="&#xe026;" horiz-adv-x="386" 
d="M651 -37c10 -34 9 -66 -20 -80c-187 -107 -399 -65 -587 8c-23 -71 -43 -135 -130 -141c-43 -4 -67 17 -82 49c-28 61 -2 191 133 155c43 154 79 322 117 469c37 10 87 16 119 0c-4 -6 -9 -17 -15 -34c18 10 37 17 55 19c129 14 128 -150 113 -220
c-14 -71 -49 -139 -93 -170c-21 -15 -48 -24 -75 -24c-31 -1 -73 9 -101 30c-10 -34 -15 -54 -27 -91c208 -59 397 -84 593 30zM168 332c-23 -74 -51 -177 -76 -282c21 -17 54 -5 82 12c38 26 68 77 85 132c8 28 34 178 -29 178c-19 0 -42 -17 -62 -40zM-114 -206
c36 -10 64 97 70 121c-88 23 -102 -65 -89 -99c3 -10 10 -19 19 -22z" />
    <glyph glyph-name="q.2" unicode="&#xe027;" horiz-adv-x="393" 
d="M281 -45c153 36 120 -94 64 -154c-27 -33 -64 -51 -106 -51c-89 0 -74 67 -63 142c-155 -51 -440 -91 -583 0c-22 14 -17 38 8 70c147 -90 417 -68 579 -29c7 38 11 58 19 96c-23 -18 -51 -31 -77 -34c-130 -15 -127 150 -112 220c15 71 48 138 93 169c22 16 47 25 75 25
c33 2 75 -10 103 -33c4 15 12 41 16 47c39 12 88 14 121 0c-48 -75 -110 -348 -137 -468zM211 87c21 101 45 197 62 262c-20 20 -53 11 -82 -9c-39 -26 -69 -76 -85 -132c-8 -27 -36 -174 28 -174c23 0 53 23 77 53zM320 -182c26 34 53 121 -47 97c-5 -28 -13 -83 -4 -110
c7 -22 33 -8 51 13z" />
    <glyph glyph-name="u.2" unicode="&#xe028;" horiz-adv-x="365" 
d="M881 -69c17 -27 22 -70 -20 -94c-130 -72 -339 -54 -473 13c-88 43 -156 137 -168 235c-24 -53 -65 -91 -118 -91c-45 -1 -73 18 -88 50c-25 52 -9 206 29 355c26 10 91 17 113 -1c-44 -131 -74 -272 -65 -319c4 -21 12 -36 26 -43c40 -21 86 57 101 112
c9 70 22 162 41 251c26 10 86 17 108 -1c-29 -86 -47 -177 -56 -242c-14 -97 15 -198 105 -259c122 -78 362 -51 465 34z" />
    <glyph glyph-name="x.2" unicode="&#xe029;" horiz-adv-x="419" 
d="M959 -35c17 -28 24 -72 -17 -96c-173 -101 -441 -112 -581 40c-48 52 -83 117 -119 186c-57 -53 -124 -91 -191 -100c-3 5 4 35 17 39c54 15 106 54 150 102c-22 50 -86 206 -137 206c-68 0 -27 -159 -11 -208c2 -5 4 -9 5 -12c4 -10 -17 -28 -21 -26c-3 7 -6 12 -8 19
c-44 107 -96 294 61 294c94 0 144 -112 171 -187c33 46 69 146 60 201c38 15 101 12 108 0c-19 -79 -70 -182 -142 -260c25 -71 55 -152 106 -213c138 -158 402 -107 549 15z" />
    <glyph glyph-name="y.2" unicode="&#xe02a;" horiz-adv-x="366" 
d="M829 -36c11 -32 5 -56 -23 -71c-162 -80 -414 -63 -580 1c-25 -76 -30 -144 -122 -144c-43 0 -73 21 -87 53c-28 60 -4 189 131 153c7 27 10 38 16 65c-17 -17 -41 -27 -66 -27c-45 0 -74 21 -89 52c-25 52 -10 205 28 353c26 10 91 17 113 -1
c-44 -130 -74 -270 -65 -316c4 -21 12 -37 26 -43c23 -12 48 8 67 37c27 107 56 220 83 323c39 10 88 15 119 0c-67 -144 -98 -308 -139 -464c175 -49 423 -51 588 29zM94 -193c24 27 39 81 45 111c-88 23 -102 -65 -90 -97c8 -22 28 -33 45 -14z" />
    <glyph glyph-name="z.2" unicode="&#xe02b;" horiz-adv-x="368" 
d="M653 -97c6 -31 -41 -63 -81 -63c-126 -1 -255 93 -379 209c-56 -51 -100 -58 -130 -54c-71 12 -70 130 -2 153c22 9 51 12 88 -11c60 77 89 136 132 227h-94c-3 -42 -16 -87 -56 -111c-54 -31 -105 -2 -105 46c0 75 34 106 138 110c4 14 -3 54 -17 79c0 8 18 9 20 6
c13 -29 20 -59 22 -85h207c-26 -110 -98 -241 -169 -324c148 -122 264 -187 426 -182zM103 295c23 11 46 39 54 69c-81 1 -110 -29 -109 -55c3 -20 25 -33 55 -14zM60 47c11 -3 34 10 65 58c-25 20 -44 14 -56 7c-26 -16 -29 -59 -9 -65z" />
    <glyph glyph-name="seniors" unicode="&#xe02d;" horiz-adv-x="590" 
d="M298 583c146 0 264 -118 264 -264c0 -144 -118 -262 -264 -262c-144 0 -262 118 -262 262c0 146 118 264 262 264zM298 95c125 0 226 100 226 224c0 125 -101 226 -226 226c-124 0 -224 -101 -224 -226c0 -124 100 -224 224 -224zM281 288c2 -3 4 -10 -3 -15
c-37 -31 -96 -9 -132 14c-3 -2 -8 -2 -14 -2c-25 -2 -34 14 -27 24c5 6 16 9 41 -10c3 3 5 7 5 12c6 30 -38 39 -37 68c0 16 16 29 37 27c31 -2 29 -46 -2 -39c-3 1 -4 14 0 13c16 -8 22 19 2 21c-11 0 -18 -8 -19 -16c-2 -24 45 -36 38 -72c-1 -8 -7 -16 -14 -21
c33 -20 94 -37 125 -4zM394 221c3 -3 4 -5 0 -9c-19 -14 -48 -4 -65 9c-2 -1 -5 -1 -8 -3c-12 0 -17 9 -13 12c2 4 8 6 20 -3c1 1 2 2 4 6c2 14 -21 19 -21 33c2 8 9 15 19 14c16 -1 16 -24 -1 -20c-1 1 -2 7 0 6c8 -4 12 11 1 12c-6 0 -9 -5 -9 -10c-1 -12 22 -16 20 -34
c-1 -5 -5 -8 -8 -12c18 -10 47 -18 61 -1zM321 222c1 0 2 1 3 2c-8 7 -13 5 -14 5c-1 -3 3 -8 11 -7zM362 236h3c-1 -8 -5 -14 -12 -15c-4 0 -5 1 -7 3c-3 5 -1 17 0 26c0 -1 -3 -1 -3 -1c-1 1 0 5 0 5h4c1 6 2 12 4 14c2 1 7 3 9 0c-1 -2 -2 -7 -5 -14h5c1 0 0 -2 0 -2
c-2 -2 -4 -2 -5 -2c-2 -9 -3 -19 -2 -23c0 -1 0 -3 2 -3c4 -2 7 9 7 12zM397 239h2c0 -9 -5 -17 -10 -17c-4 0 -6 2 -9 4v3c-2 -5 -5 -7 -8 -7c-5 0 -7 0 -8 4c-3 3 -2 15 1 28c2 0 7 1 9 0c-3 -11 -4 -23 -4 -25c1 -2 1 -3 2 -5c3 -1 6 5 8 10c0 6 0 13 1 20c3 1 9 2 10 0
c-4 -9 -5 -21 -4 -25c0 -2 2 -2 3 -3c3 -2 7 9 7 13zM432 240c0 1 2 1 3 1c-1 -8 -5 -17 -12 -17c-4 0 -6 2 -7 3v2c-3 -3 -6 -5 -10 -6c-10 -1 -12 12 -9 18c0 5 2 11 7 13c1 1 4 2 5 2c2 0 6 0 8 -2c1 12 4 23 6 26c2 1 7 3 9 1c-3 -6 -11 -42 -10 -51c1 -1 1 -3 2 -3
c4 -1 8 9 8 13zM415 233c0 6 1 12 1 19c-1 1 -4 0 -5 -2c-3 -1 -6 -5 -7 -10c0 -1 -2 -14 4 -13c2 0 4 2 7 6zM440 264c-3 0 -5 2 -5 4c-1 3 1 4 3 4c3 0 5 -1 5 -4c0 -2 -1 -4 -3 -4zM449 241h1c0 -7 -3 -17 -10 -17c-4 0 -6 2 -8 5c-2 4 -2 16 0 27c3 2 9 2 10 0
c-2 -10 -5 -21 -4 -25c0 -2 2 -2 3 -3c3 -2 8 9 8 13zM483 241v-2c-3 0 -7 -2 -9 -2c0 -4 -2 -7 -5 -8c-2 -2 -6 -3 -9 -3c-20 0 -15 32 0 33c3 0 7 -1 9 -3v-2c-12 10 -20 -25 -10 -25c3 -1 8 2 9 10c-8 2 -7 10 -4 13c4 4 12 0 11 -12c1 0 5 0 8 1zM469 241
c1 8 -2 11 -3 8c-2 -2 -2 -6 3 -8zM131 292c2 0 6 1 7 2c-17 15 -26 12 -28 10c-3 -5 6 -16 21 -12zM233 320c1 2 2 2 4 0c0 -33 -44 -42 -57 -18c-8 13 -3 39 11 48c4 3 8 4 14 5c5 0 10 -1 13 -2c4 -4 7 -8 7 -12c1 -12 -13 -21 -24 -25c-4 -3 -7 -3 -10 -3
c0 -4 2 -9 3 -11c9 -17 38 -5 39 18zM208 347c-7 -5 -14 -18 -17 -29c3 0 4 1 5 1c7 5 14 12 18 20c1 4 2 8 1 9s-2 1 -5 0c0 0 -2 0 -2 -1zM301 324h4c-2 -15 -9 -32 -22 -32c-7 -1 -14 4 -17 13c-1 10 11 46 3 45c-6 0 -15 -12 -19 -22c-3 -12 -5 -24 -5 -36
c-5 -2 -13 -4 -16 -1c3 28 6 56 10 67c6 2 14 3 20 2c-2 -3 -3 -7 -5 -15c5 8 11 13 18 12c29 -2 -3 -51 13 -58c9 -5 16 18 16 25zM313 372c-5 0 -9 3 -9 8c-1 5 4 8 9 8c4 0 8 -2 9 -7c0 -5 -4 -9 -9 -9zM334 325c1 1 1 1 2 0c-1 -15 -9 -31 -21 -32c-7 0 -12 3 -14 9
c-5 7 -4 32 1 55c3 3 14 4 18 0c-6 -21 -10 -44 -7 -51c0 -2 1 -4 3 -6c8 -3 18 18 18 25zM402 326v-4c-5 -3 -12 -4 -17 -4c-2 -8 -5 -13 -11 -16c-4 -5 -12 -8 -16 -8c-43 0 -31 66 0 67c4 1 12 0 16 -4c1 -1 0 -4 -1 -4c-22 17 -41 -49 -20 -51c7 -2 17 7 19 17
c-17 7 -13 24 -8 30c7 7 23 -1 21 -26c2 -1 11 1 17 3zM373 325c2 18 -3 22 -6 17c-2 -4 -3 -12 6 -17zM434 364c8 2 15 -6 15 -14c0 -2 -12 -11 -14 -9c5 9 2 23 -7 14c-5 -4 -11 -12 -17 -29c-2 -8 -5 -19 -5 -28c-4 -1 -13 -2 -15 -1c1 28 8 57 12 69c6 2 14 3 19 1
c-1 -3 -3 -7 -5 -14c4 5 10 11 17 11zM482 351c10 -3 15 9 1 10c-8 1 -11 -4 -11 -8c1 -6 10 -14 15 -18c15 -16 10 -35 -14 -36c-30 -1 -31 30 -18 35c2 1 14 -4 11 -5c-12 -3 -13 -24 4 -23c12 0 11 14 5 22c-7 7 -19 13 -19 22c0 11 12 19 27 17c19 -3 19 -25 -1 -22
c-2 0 -3 8 0 6z" />
    <glyph glyph-name="Zcaron" unicode="&#x17d;" horiz-adv-x="641" 
d="M465 812c-27 53 -56 106 -82 159c6 8 22 7 33 0l66 -111l115 110c21 7 49 8 61 0c-49 -53 -98 -106 -146 -159c-9 -12 -26 -9 -47 1zM519 163c56 34 106 1 108 -48c3 -50 -39 -111 -148 -115c-5 -15 1 -55 14 -84c0 -6 -19 -8 -22 -4c-12 29 -20 63 -19 88h-377
c146 228 257 412 457 703h-132c-6 -42 -22 -89 -65 -114c-57 -33 -106 -1 -109 47c-2 51 38 114 149 117c5 15 -1 55 -16 82c2 7 22 10 24 5c11 -29 20 -62 19 -87h300c-170 -246 -339 -488 -486 -713h233c5 43 28 99 70 123zM309 632c24 12 49 41 57 71
c-85 2 -117 -29 -114 -56c1 -20 23 -34 57 -15zM483 39c83 0 121 39 119 67c-3 20 -24 33 -58 15c-23 -13 -54 -51 -61 -82z" />
    <glyph glyph-name="Agrave" unicode="&#xc0;" horiz-adv-x="692" 
d="M575 973c25 12 57 9 90 -1c17 -53 32 -107 48 -160c-19 -9 -48 -6 -66 0c-24 54 -47 108 -72 161zM301 167c-61 -13 -99 -42 -116 -69c-47 -75 37 -111 116 69zM721 185c9 6 15 6 23 3c-13 -103 -70 -193 -152 -194c-46 -1 -74 23 -89 56c-12 24 -14 66 -10 121
c-35 6 -104 5 -124 2c-35 -63 -81 -154 -155 -175c-22 -6 -46 -6 -71 1c-48 13 -59 61 -35 105c27 49 99 100 214 112c69 143 172 374 243 518c20 11 57 17 94 18c34 0 66 -5 82 -16c-24 -60 -216 -641 -133 -694c47 -32 111 95 113 143zM590 624
c-50 -103 -180 -362 -203 -410c24 -1 85 -1 110 -5c8 78 72 327 93 415z" />
    <glyph glyph-name="Atilde" unicode="&#xc3;" horiz-adv-x="692" 
d="M839 885c-3 -10 -8 -20 -17 -31c-10 -10 -21 -19 -34 -27c-14 -8 -29 -15 -45 -20c-17 -5 -33 -8 -50 -8c-14 0 -29 2 -42 5s-26 6 -38 11s-24 8 -36 11s-24 5 -36 5c-24 0 -44 -8 -61 -23c0 0 -6 1 -5 2c15 28 35 48 61 63c26 14 56 20 90 20c17 0 31 -1 44 -4
c14 -3 26 -6 37 -9c11 -4 23 -7 33 -10c11 -3 23 -5 37 -5c11 0 22 2 32 6c10 3 18 7 25 14c1 1 5 1 5 0zM301 167c-61 -13 -99 -42 -116 -69c-47 -75 37 -111 116 69zM721 185c9 6 15 6 23 3c-13 -103 -70 -193 -152 -194c-46 -1 -74 23 -89 56c-12 24 -14 66 -10 121
c-35 6 -104 5 -124 2c-35 -63 -81 -154 -155 -175c-22 -6 -46 -6 -71 1c-48 13 -59 61 -35 105c27 49 99 100 214 112c69 143 172 374 243 518c20 11 57 17 94 18c34 0 66 -5 82 -16c-24 -60 -216 -641 -133 -694c47 -32 111 95 113 143zM590 624
c-50 -103 -180 -362 -203 -410c24 -1 85 -1 110 -5c8 78 72 327 93 415z" />
    <glyph glyph-name="Egrave" unicode="&#xc8;" horiz-adv-x="516" 
d="M343 955c25 12 57 9 90 -1c17 -53 32 -107 48 -160c-19 -9 -48 -6 -66 0c-24 54 -47 108 -72 161zM550 187c11 4 28 4 38 0c-40 -102 -109 -180 -223 -192c-294 -25 -294 305 -67 406c-71 55 -86 114 -71 182c-25 10 -58 21 -77 32c-5 0 12 32 22 27c20 -7 44 -16 69 -22
c46 104 133 132 203 132c221 0 120 -253 -120 -194c-10 -46 11 -124 118 -153c5 -2 3 -3 -1 -4c-195 -39 -241 -372 -77 -364c91 5 148 70 186 150zM457 709c-43 0 -92 -53 -116 -110c156 -17 194 110 116 110z" />
    <glyph glyph-name="Ecircumflex" unicode="&#xca;" horiz-adv-x="516" 
d="M456 946c27 -53 56 -106 82 -159c-6 -8 -22 -7 -33 0l-66 111l-115 -110c-21 -7 -49 -8 -61 0c49 53 98 106 146 159c9 12 26 9 47 -1zM550 187c11 4 28 4 38 0c-40 -102 -109 -180 -223 -192c-294 -25 -294 305 -67 406c-71 55 -86 114 -71 182c-25 10 -58 21 -77 32
c-5 0 12 32 22 27c20 -7 44 -16 69 -22c46 104 133 132 203 132c221 0 120 -253 -120 -194c-10 -46 11 -124 118 -153c5 -2 3 -3 -1 -4c-195 -39 -241 -372 -77 -364c91 5 148 70 186 150zM457 709c-43 0 -92 -53 -116 -110c156 -17 194 110 116 110z" />
    <glyph glyph-name="Igrave" unicode="&#xcc;" horiz-adv-x="391" 
d="M312 958c25 12 57 9 90 -1c17 -53 32 -107 48 -160c-19 -9 -48 -6 -66 0c-24 54 -47 108 -72 161zM284 3v0c-22 -9 -77 -15 -91 0c19 161 109 557 147 684c-130 -21 -147 -185 -147 -294c-10 -21 -92 57 -86 85c38 206 187 274 377 274c-89 -218 -157 -520 -200 -749z
" />
    <glyph glyph-name="Eth" unicode="&#xd0;" horiz-adv-x="657" 
d="M412 263h-83c-20 -95 -36 -181 -45 -226c221 6 345 511 220 635c-163 133 -335 -89 -295 -257c-9 -21 -92 56 -86 84c35 187 204 289 378 241c275 -83 156 -543 -44 -688c-79 -57 -219 -65 -268 -53c7 62 22 160 41 264h-101c-5 25 3 59 10 74h105c24 127 53 253 79 321
c36 11 87 18 117 2c-28 -44 -64 -184 -95 -323h77c4 -25 -1 -54 -10 -74z" />
    <glyph glyph-name="Ntilde" unicode="&#xd1;" horiz-adv-x="686" 
d="M733 891c-3 -10 -8 -20 -17 -31c-10 -10 -21 -19 -34 -27c-14 -8 -29 -15 -45 -20c-17 -5 -33 -8 -50 -8c-14 0 -29 2 -42 5s-26 6 -38 11s-24 8 -36 11s-24 5 -36 5c-24 0 -44 -8 -61 -23c0 0 -6 1 -5 2c15 28 35 48 61 63c26 14 56 20 90 20c17 0 31 -1 44 -4
c14 -3 26 -6 37 -9c11 -4 23 -7 33 -10c11 -3 23 -5 37 -5c11 0 22 2 32 6c10 3 18 7 25 14c1 1 5 1 5 0zM719 185c11 5 16 5 24 2c-13 -97 -66 -192 -145 -193c-194 -1 -34 484 -9 583c-62 -129 -231 -447 -289 -567c-7 -15 -83 -25 -92 -4c48 218 83 440 129 682
c-126 -23 -143 -180 -143 -287c-9 -21 -93 58 -86 84c37 195 187 271 369 267c-55 -135 -103 -359 -139 -503c72 156 191 396 235 485c39 29 169 20 177 -7c-41 -65 -227 -651 -139 -688c49 -19 107 103 108 146z" />
    <glyph glyph-name="Ograve" unicode="&#xd2;" 
d="M357 958c25 12 57 9 90 -1c17 -53 32 -107 48 -160c-19 -9 -48 -6 -66 0c-24 54 -47 108 -72 161zM726 557c5 2 13 -17 11 -20c-19 -21 -41 -38 -63 -48c16 -50 23 -112 12 -186c-79 -485 -631 -361 -562 110c25 167 118 334 287 339c56 1 129 -22 178 -61
c4 -15 -6 -42 -16 -46c-21 27 -88 66 -139 65c-122 -4 -188 -189 -202 -300c-59 -430 248 -520 353 -77c9 55 14 97 15 131c-35 -8 -74 -4 -105 19c-112 86 62 257 168 28c19 8 45 25 63 46zM524 524c18 -15 47 -26 75 -25c-3 26 -11 48 -25 67c-20 23 -47 28 -62 21
c-19 -9 -16 -37 12 -63z" />
    <glyph glyph-name="Otilde" unicode="&#xd5;" 
d="M611 883c-3 -10 -8 -20 -17 -31c-10 -10 -21 -19 -34 -27c-14 -8 -29 -15 -45 -20c-17 -5 -33 -8 -50 -8c-14 0 -29 2 -42 5s-26 6 -38 11s-24 8 -36 11s-24 5 -36 5c-24 0 -44 -8 -61 -23c0 0 -6 1 -5 2c15 28 35 48 61 63c26 14 56 20 90 20c17 0 31 -1 44 -4
c14 -3 26 -6 37 -9c11 -4 23 -7 33 -10c11 -3 23 -5 37 -5c11 0 22 2 32 6c10 3 18 7 25 14c1 1 5 1 5 0zM726 557c5 2 13 -17 11 -20c-19 -21 -41 -38 -63 -48c16 -50 23 -112 12 -186c-79 -485 -631 -361 -562 110c25 167 118 334 287 339c56 1 129 -22 178 -61
c4 -15 -6 -42 -16 -46c-21 27 -88 66 -139 65c-122 -4 -188 -189 -202 -300c-59 -430 248 -520 353 -77c9 55 14 97 15 131c-35 -8 -74 -4 -105 19c-112 86 62 257 168 28c19 8 45 25 63 46zM524 524c18 -15 47 -26 75 -25c-3 26 -11 48 -25 67c-20 23 -47 28 -62 21
c-19 -9 -16 -37 12 -63z" />
    <glyph glyph-name="Ugrave" unicode="&#xd9;" horiz-adv-x="590" 
d="M344 928c25 12 57 9 90 -1c17 -53 32 -107 48 -160c-19 -9 -48 -6 -66 0c-24 54 -47 108 -72 161zM533 740c37 11 87 18 118 3c-34 -56 -124 -561 -155 -739c-21 -9 -77 -15 -91 0c3 25 5 48 9 81c-43 -45 -101 -93 -166 -91c-47 2 -88 33 -105 107
c-33 147 28 488 66 639c30 12 105 18 129 -1c-49 -122 -119 -497 -109 -633c3 -36 15 -56 30 -64c53 -28 137 63 165 107c31 222 85 533 109 591z" />
    <glyph glyph-name="Ucircumflex" unicode="&#xdb;" horiz-adv-x="590" 
d="M489 955c27 -53 56 -106 82 -159c-6 -8 -22 -7 -33 0l-66 111l-115 -110c-21 -7 -49 -8 -61 0c49 53 98 106 146 159c9 12 26 9 47 -1zM533 740c37 11 87 18 118 3c-34 -56 -124 -561 -155 -739c-21 -9 -77 -15 -91 0c3 25 5 48 9 81c-43 -45 -101 -93 -166 -91
c-47 2 -88 33 -105 107c-33 147 28 488 66 639c30 12 105 18 129 -1c-49 -122 -119 -497 -109 -633c3 -36 15 -56 30 -64c53 -28 137 63 165 107c31 222 85 533 109 591z" />
    <glyph glyph-name="otilde" unicode="&#xf5;" horiz-adv-x="403" 
d="M389 545c-3 -10 -8 -20 -17 -31c-10 -10 -21 -19 -34 -27c-14 -8 -29 -15 -45 -20c-17 -5 -33 -8 -50 -8c-14 0 -29 2 -42 5s-26 6 -38 11s-24 8 -36 11s-24 5 -36 5c-24 0 -44 -8 -61 -23c0 0 -6 1 -5 2c15 28 35 48 61 63c26 14 56 20 90 20c17 0 31 -1 44 -4
c14 -3 26 -6 37 -9c11 -4 23 -7 33 -10c11 -3 23 -5 37 -5c11 0 22 2 32 6c10 3 18 7 25 14c1 1 5 1 5 0zM447 177c6 0 4 -24 0 -26c-32 -15 -77 -21 -104 -19c-14 -53 -36 -82 -72 -107c-33 -22 -72 -33 -110 -31c-258 7 -173 417 20 415c35 0 79 -8 108 -31
c3 -8 -3 -23 -9 -25c-134 115 -271 -297 -139 -321c41 -7 98 40 122 115c-106 48 -78 152 -44 182c47 42 145 -13 129 -166c15 -4 66 0 99 14zM272 181c21 111 -17 132 -33 105c-12 -18 -25 -71 33 -105z" />
    <glyph glyph-name="ugrave" unicode="&#xf9;" horiz-adv-x="421" 
d="M116 618c25 12 57 9 90 -1c17 -53 32 -107 48 -160c-19 -9 -48 -6 -66 0c-24 54 -47 108 -72 161zM445 190c9 6 15 5 24 3c-13 -99 -71 -198 -151 -199c-46 0 -73 19 -88 51c-5 9 -8 23 -9 41c-26 -53 -66 -92 -119 -92c-46 0 -73 19 -87 51c-26 52 -12 205 27 355
c26 9 90 16 113 -2c-44 -130 -73 -271 -64 -318c4 -20 12 -37 26 -44c40 -21 85 58 101 112c6 69 17 162 40 252c26 9 91 16 113 -2c-43 -130 -73 -271 -63 -318c3 -20 11 -37 25 -44c50 -26 111 110 112 154z" />
    <glyph glyph-name="agrave" unicode="&#xe0;" horiz-adv-x="427" 
d="M156 612c25 12 57 9 90 -1c17 -53 32 -107 48 -160c-19 -9 -48 -6 -66 0c-24 54 -47 108 -72 161zM457 190c10 5 15 5 24 2c-14 -98 -70 -197 -149 -198c-46 0 -73 19 -88 49c-3 5 -4 10 -6 17c-30 -35 -75 -61 -116 -65c-135 -15 -133 149 -118 219c16 71 52 138 99 170
c23 15 48 24 78 25c27 1 60 -7 87 -22l4 12c26 10 91 16 113 -1c-44 -130 -74 -271 -64 -318c4 -22 12 -37 26 -44c49 -26 109 109 110 154zM233 110c-3 61 7 154 29 247c-21 5 -45 -4 -68 -18c-41 -25 -72 -77 -89 -132c-7 -27 -36 -174 29 -174c31 0 71 35 99 77z" />
    <glyph glyph-name="atilde" unicode="&#xe3;" horiz-adv-x="427" 
d="M399 537c-3 -10 -8 -20 -17 -31c-10 -10 -21 -19 -34 -27c-14 -8 -29 -15 -45 -20c-17 -5 -33 -8 -50 -8c-14 0 -29 2 -42 5s-26 6 -38 11s-24 8 -36 11s-24 5 -36 5c-24 0 -44 -8 -61 -23c0 0 -6 1 -5 2c15 28 35 48 61 63c26 14 56 20 90 20c17 0 31 -1 44 -4
c14 -3 26 -6 37 -9c11 -4 23 -7 33 -10c11 -3 23 -5 37 -5c11 0 22 2 32 6c10 3 18 7 25 14c1 1 5 1 5 0zM457 190c10 5 15 5 24 2c-14 -98 -70 -197 -149 -198c-46 0 -73 19 -88 49c-3 5 -4 10 -6 17c-30 -35 -75 -61 -116 -65c-135 -15 -133 149 -118 219
c16 71 52 138 99 170c23 15 48 24 78 25c27 1 60 -7 87 -22l4 12c26 10 91 16 113 -1c-44 -130 -74 -271 -64 -318c4 -22 12 -37 26 -44c49 -26 109 109 110 154zM233 110c-3 61 7 154 29 247c-21 5 -45 -4 -68 -18c-41 -25 -72 -77 -89 -132c-7 -27 -36 -174 29 -174
c31 0 71 35 99 77z" />
    <glyph glyph-name="egrave" unicode="&#xe8;" horiz-adv-x="319" 
d="M87 617c25 12 57 9 90 -1c17 -53 32 -107 48 -160c-19 -9 -48 -6 -66 0c-24 54 -47 108 -72 161zM350 189c11 4 16 4 24 1c-8 -208 -286 -259 -359 -111c-47 89 -1 250 87 306c22 15 50 23 79 24c37 2 66 -6 87 -18c26 -18 40 -42 40 -70c0 -73 -92 -128 -153 -153
c-25 -10 -47 -17 -65 -18c-2 -29 3 -54 15 -74c52 -97 235 -36 245 113zM200 360c-45 -29 -90 -104 -105 -176c10 3 19 6 27 11c50 25 92 67 116 116c13 25 17 48 7 57c-4 5 -13 5 -27 0c-5 -2 -12 -6 -18 -8z" />
    <glyph glyph-name="ecircumflex" unicode="&#xea;" horiz-adv-x="319" 
d="M226 591c27 -53 56 -106 82 -159c-6 -8 -22 -7 -33 0l-66 111l-115 -110c-21 -7 -49 -8 -61 0c49 53 98 106 146 159c9 12 26 9 47 -1zM350 189c11 4 16 4 24 1c-8 -208 -286 -259 -359 -111c-47 89 -1 250 87 306c22 15 50 23 79 24c37 2 66 -6 87 -18
c26 -18 40 -42 40 -70c0 -73 -92 -128 -153 -153c-25 -10 -47 -17 -65 -18c-2 -29 3 -54 15 -74c52 -97 235 -36 245 113zM200 360c-45 -29 -90 -104 -105 -176c10 3 19 6 27 11c50 25 92 67 116 116c13 25 17 48 7 57c-4 5 -13 5 -27 0c-5 -2 -12 -6 -18 -8z" />
    <glyph glyph-name="edieresis" unicode="&#xeb;" horiz-adv-x="319" 
d="M350 189c11 4 16 4 24 1c-8 -208 -286 -259 -359 -111c-47 89 -1 250 87 306c22 15 50 23 79 24c37 2 66 -6 87 -18c26 -18 40 -42 40 -70c0 -73 -92 -128 -153 -153c-25 -10 -47 -17 -65 -18c-2 -29 3 -54 15 -74c52 -97 235 -36 245 113zM200 360
c-45 -29 -90 -104 -105 -176c10 3 19 6 27 11c50 25 92 67 116 116c13 25 17 48 7 57c-4 5 -13 5 -27 0c-5 -2 -12 -6 -18 -8zM94 445c-32 0 -57 22 -57 51c0 30 25 53 57 53c31 0 55 -23 55 -53c0 -29 -24 -51 -55 -51zM282 445c-32 0 -57 22 -57 51c0 30 25 53 57 53
c31 0 55 -23 55 -53c0 -29 -24 -51 -55 -51z" />
    <glyph glyph-name="idieresis" unicode="&#xef;" horiz-adv-x="204" 
d="M227 191c9 5 14 5 23 2c-14 -99 -70 -198 -151 -199c-45 0 -72 19 -87 51c-25 51 -9 205 29 353c26 11 90 18 112 0c-43 -131 -73 -272 -65 -318c4 -21 12 -35 26 -43c48 -26 112 108 113 154zM20 478c-32 0 -57 22 -57 51c0 30 25 53 57 53c31 0 55 -23 55 -53
c0 -29 -24 -51 -55 -51zM208 478c-32 0 -57 22 -57 51c0 30 25 53 57 53c31 0 55 -23 55 -53c0 -29 -24 -51 -55 -51z" />
    <glyph glyph-name="ntilde" unicode="&#xf1;" horiz-adv-x="433" 
d="M429 561c-3 -10 -8 -20 -17 -31c-10 -10 -21 -19 -34 -27c-14 -8 -29 -15 -45 -20c-17 -5 -33 -8 -50 -8c-14 0 -29 2 -42 5s-26 6 -38 11s-24 8 -36 11s-24 5 -36 5c-24 0 -44 -8 -61 -23c0 0 -6 1 -5 2c15 28 35 48 61 63c26 14 56 20 90 20c17 0 31 -1 44 -4
c14 -3 26 -6 37 -9c11 -4 23 -7 33 -10c11 -3 23 -5 37 -5c11 0 22 2 32 6c10 3 18 7 25 14c1 1 5 1 5 0zM457 191c10 4 15 4 23 2c-13 -99 -67 -198 -144 -199c-50 0 -92 26 -99 85c-6 65 76 290 21 290c-35 0 -87 -72 -119 -139c-17 -72 -33 -152 -46 -227
c-22 -9 -78 -15 -92 0c20 176 49 349 80 420c39 11 88 16 120 0c-10 -16 -20 -41 -32 -80c30 41 70 73 115 65c184 -28 -37 -321 65 -372c49 -24 107 109 108 155z" />
    <glyph glyph-name="ucircumflex" unicode="&#xfb;" horiz-adv-x="421" 
d="M253 615c27 -53 56 -106 82 -159c-6 -8 -22 -7 -33 0l-66 111l-115 -110c-21 -7 -49 -8 -61 0c49 53 98 106 146 159c9 12 26 9 47 -1zM445 190c9 6 15 5 24 3c-13 -99 -71 -198 -151 -199c-46 0 -73 19 -88 51c-5 9 -8 23 -9 41c-26 -53 -66 -92 -119 -92
c-46 0 -73 19 -87 51c-26 52 -12 205 27 355c26 9 90 16 113 -2c-44 -130 -73 -271 -64 -318c4 -20 12 -37 26 -44c40 -21 85 58 101 112c6 69 17 162 40 252c26 9 91 16 113 -2c-43 -130 -73 -271 -63 -318c3 -20 11 -37 25 -44c50 -26 111 110 112 154z" />
    <glyph glyph-name="circumflex" unicode="&#x2c6;" horiz-adv-x="377" 
d="M278 740c27 -53 56 -106 82 -159c-6 -8 -22 -7 -33 0l-66 111l-115 -110c-21 -7 -49 -8 -61 0c49 53 98 106 146 159c9 12 26 9 47 -1z" />
    <glyph glyph-name="OE" unicode="&#x152;" horiz-adv-x="1062" 
d="M726 557c5 2 13 -17 11 -20c-19 -21 -41 -38 -63 -48c16 -50 23 -112 12 -186c-79 -485 -631 -361 -562 110c25 167 118 334 287 339c56 1 129 -22 178 -61c4 -15 -6 -42 -16 -46c-21 27 -88 66 -139 65c-122 -4 -188 -189 -202 -300c-59 -430 248 -520 353 -77
c9 55 14 97 15 131c-35 -8 -74 -4 -105 19c-112 86 62 257 168 28c19 8 45 25 63 46zM524 524c18 -15 47 -26 75 -25c-3 26 -11 48 -25 67c-20 23 -47 28 -62 21c-19 -9 -16 -37 12 -63zM1094 187c11 4 28 4 38 0c-40 -102 -109 -180 -223 -192c-294 -25 -294 305 -67 406
c-71 55 -86 114 -71 182c-25 10 -58 21 -77 32c-5 0 12 32 22 27c20 -7 44 -16 69 -22c46 104 133 132 203 132c221 0 120 -253 -120 -194c-10 -46 11 -124 118 -153c5 -2 3 -3 -1 -4c-195 -39 -241 -372 -77 -364c91 5 148 70 186 150zM1001 709c-43 0 -92 -53 -116 -110
c156 -17 194 110 116 110z" />
    <glyph glyph-name="oe" unicode="&#x153;" horiz-adv-x="695" 
d="M718 189c11 4 16 4 24 1c-8 -208 -286 -259 -359 -111c-9 15 -14 34 -17 53c-8 -1 -16 -1 -23 0c-14 -53 -36 -82 -72 -107c-33 -22 -72 -33 -110 -31c-258 7 -173 417 20 415c35 0 79 -8 108 -31c3 -8 -3 -23 -9 -25c-134 115 -271 -297 -139 -321c41 -7 98 40 122 115
c-106 48 -78 152 -44 182c47 42 145 -13 129 -166c3 -1 9 -2 16 -2c-1 85 41 183 106 224c22 15 50 23 79 24c37 2 66 -6 87 -18c26 -18 40 -42 40 -70c0 -73 -92 -128 -153 -153c-25 -10 -47 -17 -65 -18c-2 -29 3 -54 15 -74c52 -97 235 -36 245 113zM568 360
c-45 -29 -90 -104 -105 -176c10 3 19 6 27 11c50 25 92 67 116 116c13 25 17 48 7 57c-4 5 -13 5 -27 0c-5 -2 -12 -6 -18 -8zM272 181c21 111 -17 132 -33 105c-12 -18 -25 -71 33 -105z" />
    <glyph glyph-name="AE" unicode="&#xc6;" horiz-adv-x="1089" 
d="M1113 187c11 4 28 4 38 0c-40 -102 -109 -180 -223 -192c-113 -9 -182 33 -212 94c-27 -56 -70 -94 -124 -95c-46 -1 -74 23 -89 56c-12 24 -14 66 -10 121c-35 6 -104 5 -124 2c-35 -63 -81 -154 -155 -175c-22 -6 -46 -6 -71 1c-48 13 -59 61 -35 105
c27 49 99 100 214 112c69 143 172 374 243 518c20 11 57 17 94 18c34 0 66 -5 82 -16c-24 -60 -216 -641 -133 -694c32 -22 73 31 95 82c-23 97 33 221 158 277c-71 55 -86 114 -71 182c-25 10 -58 21 -77 32c-5 0 12 32 22 27c20 -7 44 -16 69 -22c46 104 133 132 203 132
c221 0 120 -253 -120 -194c-10 -46 11 -124 118 -153c5 -2 3 -3 -1 -4c-195 -39 -241 -372 -77 -364c91 5 148 70 186 150zM590 624c-50 -103 -180 -362 -203 -410c24 -1 85 -1 110 -5c8 78 72 327 93 415zM1020 709c-43 0 -92 -53 -116 -110c156 -17 194 110 116 110z
M301 167c-61 -13 -99 -42 -116 -69c-47 -75 37 -111 116 69z" />
    <glyph glyph-name="ae" unicode="&#xe6;" horiz-adv-x="712" 
d="M740 189c11 4 16 4 24 1c-8 -192 -245 -250 -339 -142c-25 -32 -57 -53 -93 -54c-46 0 -73 19 -88 49c-3 5 -4 10 -6 17c-30 -35 -75 -61 -116 -65c-135 -15 -133 149 -118 219c16 71 52 138 99 170c23 15 48 24 78 25c27 1 60 -7 87 -22l4 12c26 10 91 16 113 -1
c-44 -130 -74 -271 -64 -318c4 -22 12 -37 26 -44c20 -11 43 7 63 34c-2 3 -4 6 -5 9c-47 89 -1 250 87 306c22 15 50 23 79 24c37 2 66 -6 87 -18c26 -18 40 -42 40 -70c0 -73 -92 -128 -153 -153c-25 -10 -47 -17 -65 -18c-2 -29 3 -54 15 -74c52 -97 235 -36 245 113z
M233 110c-3 61 7 154 29 247c-21 5 -45 -4 -68 -18c-41 -25 -72 -77 -89 -132c-7 -27 -36 -174 29 -174c31 0 71 35 99 77zM590 360c-45 -29 -90 -104 -105 -176c10 3 19 6 27 11c50 25 92 67 116 116c13 25 17 48 7 57c-4 5 -13 5 -27 0c-5 -2 -12 -6 -18 -8z" />
    <glyph glyph-name="igrave" unicode="&#xec;" horiz-adv-x="228" 
d="M254 191c9 5 14 5 23 2c-14 -99 -70 -198 -151 -199c-45 0 -72 19 -87 51c-25 51 -9 205 29 353c26 11 90 18 112 0c-43 -131 -73 -272 -65 -318c4 -21 12 -35 26 -43c48 -26 112 108 113 154zM117 470c-34 54 -68 108 -103 162c24 12 57 9 93 -1c26 -54 51 -108 77 -161
c-18 -9 -48 -8 -67 0z" />
    <glyph glyph-name="ograve" unicode="&#xf2;" horiz-adv-x="403" 
d="M208 449c-17 -8 -47 -9 -67 0c17 53 33 107 50 161c34 10 66 13 92 1zM447 177c6 0 4 -24 0 -26c-32 -15 -77 -21 -104 -19c-14 -53 -36 -82 -72 -107c-33 -22 -72 -33 -110 -31c-258 7 -173 417 20 415c35 0 79 -8 108 -31c3 -8 -3 -23 -9 -25
c-134 115 -271 -297 -139 -321c41 -7 98 40 122 115c-106 48 -78 152 -44 182c47 42 145 -13 129 -166c15 -4 66 0 99 14zM272 181c21 111 -17 132 -33 105c-12 -18 -25 -71 33 -105z" />
    <glyph glyph-name="Aacute" unicode="&#xc1;" horiz-adv-x="710" 
d="M327 165v0c-60 -13 -99 -41 -116 -68c-46 -73 37 -111 116 68zM742 183v0c9 6 15 5 24 2c-14 -102 -69 -190 -151 -191c-46 -1 -73 23 -89 55c-10 23 -12 67 -9 120c-34 6 -103 5 -123 3c-34 -63 -79 -153 -154 -174c-22 -6 -45 -6 -69 0c-48 13 -59 60 -35 104
c27 49 98 99 212 111c67 143 170 370 240 513c19 11 57 18 93 18c34 0 65 -4 81 -16c-24 -58 -211 -636 -132 -688c47 -31 110 97 112 143zM614 617v0c-50 -101 -180 -357 -202 -405c23 -1 84 -1 108 -7c10 79 73 325 94 412zM839 973c-39 -54 -77 -109 -117 -164
c-19 -7 -49 -11 -66 -2c31 53 61 108 93 161c36 12 69 16 90 5v0z" />
    </font>
</defs>
</svg>
